<?xml version="1.0" encoding="utf-8" standalone="no"?>
<!DOCTYPE svg PUBLIC "-//W3C//DTD SVG 1.1//EN"
  "http://www.w3.org/Graphics/SVG/1.1/DTD/svg11.dtd">
<!-- Created with matplotlib (https://matplotlib.org/) -->
<svg height="345.6pt" version="1.1" viewBox="0 0 460.8 345.6" width="460.8pt" xmlns="http://www.w3.org/2000/svg" xmlns:xlink="http://www.w3.org/1999/xlink">
 <defs>
  <style type="text/css">
*{stroke-linecap:butt;stroke-linejoin:round;}
  </style>
 </defs>
 <g id="figure_1">
  <g id="patch_1">
   <path d="M 0 345.6 
L 460.8 345.6 
L 460.8 0 
L 0 0 
z
" style="fill:#ffffff;"/>
  </g>
  <g id="axes_1">
   <g id="patch_2">
    <path d="M 57.6 307.584 
L 414.72 307.584 
L 414.72 41.472 
L 57.6 41.472 
z
" style="fill:#ffffff;"/>
   </g>
   <g id="matplotlib.axis_1">
    <g id="xtick_1">
     <g id="line2d_1">
      <path clip-path="url(#p876d3aa0b4)" d="M 73.832727 307.584 
L 73.832727 41.472 
" style="fill:none;stroke:#b0b0b0;stroke-linecap:square;stroke-width:0.8;"/>
     </g>
     <g id="line2d_2">
      <defs>
       <path d="M 0 0 
L 0 3.5 
" id="m9fd9de67dd" style="stroke:#000000;stroke-width:0.8;"/>
      </defs>
      <g>
       <use style="stroke:#000000;stroke-width:0.8;" x="73.832727" xlink:href="#m9fd9de67dd" y="307.584"/>
      </g>
     </g>
     <g id="text_1">
      <!-- 0 -->
      <defs>
       <path d="M 31.78125 66.40625 
Q 24.171875 66.40625 20.328125 58.90625 
Q 16.5 51.421875 16.5 36.375 
Q 16.5 21.390625 20.328125 13.890625 
Q 24.171875 6.390625 31.78125 6.390625 
Q 39.453125 6.390625 43.28125 13.890625 
Q 47.125 21.390625 47.125 36.375 
Q 47.125 51.421875 43.28125 58.90625 
Q 39.453125 66.40625 31.78125 66.40625 
z
M 31.78125 74.21875 
Q 44.046875 74.21875 50.515625 64.515625 
Q 56.984375 54.828125 56.984375 36.375 
Q 56.984375 17.96875 50.515625 8.265625 
Q 44.046875 -1.421875 31.78125 -1.421875 
Q 19.53125 -1.421875 13.0625 8.265625 
Q 6.59375 17.96875 6.59375 36.375 
Q 6.59375 54.828125 13.0625 64.515625 
Q 19.53125 74.21875 31.78125 74.21875 
z
" id="DejaVuSans-48"/>
      </defs>
      <g transform="translate(70.651477 322.182437)scale(0.1 -0.1)">
       <use xlink:href="#DejaVuSans-48"/>
      </g>
     </g>
    </g>
    <g id="xtick_2">
     <g id="line2d_3">
      <path clip-path="url(#p876d3aa0b4)" d="M 127.977915 307.584 
L 127.977915 41.472 
" style="fill:none;stroke:#b0b0b0;stroke-linecap:square;stroke-width:0.8;"/>
     </g>
     <g id="line2d_4">
      <g>
       <use style="stroke:#000000;stroke-width:0.8;" x="127.977915" xlink:href="#m9fd9de67dd" y="307.584"/>
      </g>
     </g>
     <g id="text_2">
      <!-- 500 -->
      <defs>
       <path d="M 10.796875 72.90625 
L 49.515625 72.90625 
L 49.515625 64.59375 
L 19.828125 64.59375 
L 19.828125 46.734375 
Q 21.96875 47.46875 24.109375 47.828125 
Q 26.265625 48.1875 28.421875 48.1875 
Q 40.625 48.1875 47.75 41.5 
Q 54.890625 34.8125 54.890625 23.390625 
Q 54.890625 11.625 47.5625 5.09375 
Q 40.234375 -1.421875 26.90625 -1.421875 
Q 22.3125 -1.421875 17.546875 -0.640625 
Q 12.796875 0.140625 7.71875 1.703125 
L 7.71875 11.625 
Q 12.109375 9.234375 16.796875 8.0625 
Q 21.484375 6.890625 26.703125 6.890625 
Q 35.15625 6.890625 40.078125 11.328125 
Q 45.015625 15.765625 45.015625 23.390625 
Q 45.015625 31 40.078125 35.4375 
Q 35.15625 39.890625 26.703125 39.890625 
Q 22.75 39.890625 18.8125 39.015625 
Q 14.890625 38.140625 10.796875 36.28125 
z
" id="DejaVuSans-53"/>
      </defs>
      <g transform="translate(118.434165 322.182437)scale(0.1 -0.1)">
       <use xlink:href="#DejaVuSans-53"/>
       <use x="63.623047" xlink:href="#DejaVuSans-48"/>
       <use x="127.246094" xlink:href="#DejaVuSans-48"/>
      </g>
     </g>
    </g>
    <g id="xtick_3">
     <g id="line2d_5">
      <path clip-path="url(#p876d3aa0b4)" d="M 182.123103 307.584 
L 182.123103 41.472 
" style="fill:none;stroke:#b0b0b0;stroke-linecap:square;stroke-width:0.8;"/>
     </g>
     <g id="line2d_6">
      <g>
       <use style="stroke:#000000;stroke-width:0.8;" x="182.123103" xlink:href="#m9fd9de67dd" y="307.584"/>
      </g>
     </g>
     <g id="text_3">
      <!-- 1000 -->
      <defs>
       <path d="M 12.40625 8.296875 
L 28.515625 8.296875 
L 28.515625 63.921875 
L 10.984375 60.40625 
L 10.984375 69.390625 
L 28.421875 72.90625 
L 38.28125 72.90625 
L 38.28125 8.296875 
L 54.390625 8.296875 
L 54.390625 0 
L 12.40625 0 
z
" id="DejaVuSans-49"/>
      </defs>
      <g transform="translate(169.398103 322.182437)scale(0.1 -0.1)">
       <use xlink:href="#DejaVuSans-49"/>
       <use x="63.623047" xlink:href="#DejaVuSans-48"/>
       <use x="127.246094" xlink:href="#DejaVuSans-48"/>
       <use x="190.869141" xlink:href="#DejaVuSans-48"/>
      </g>
     </g>
    </g>
    <g id="xtick_4">
     <g id="line2d_7">
      <path clip-path="url(#p876d3aa0b4)" d="M 236.26829 307.584 
L 236.26829 41.472 
" style="fill:none;stroke:#b0b0b0;stroke-linecap:square;stroke-width:0.8;"/>
     </g>
     <g id="line2d_8">
      <g>
       <use style="stroke:#000000;stroke-width:0.8;" x="236.26829" xlink:href="#m9fd9de67dd" y="307.584"/>
      </g>
     </g>
     <g id="text_4">
      <!-- 1500 -->
      <g transform="translate(223.54329 322.182437)scale(0.1 -0.1)">
       <use xlink:href="#DejaVuSans-49"/>
       <use x="63.623047" xlink:href="#DejaVuSans-53"/>
       <use x="127.246094" xlink:href="#DejaVuSans-48"/>
       <use x="190.869141" xlink:href="#DejaVuSans-48"/>
      </g>
     </g>
    </g>
    <g id="xtick_5">
     <g id="line2d_9">
      <path clip-path="url(#p876d3aa0b4)" d="M 290.413478 307.584 
L 290.413478 41.472 
" style="fill:none;stroke:#b0b0b0;stroke-linecap:square;stroke-width:0.8;"/>
     </g>
     <g id="line2d_10">
      <g>
       <use style="stroke:#000000;stroke-width:0.8;" x="290.413478" xlink:href="#m9fd9de67dd" y="307.584"/>
      </g>
     </g>
     <g id="text_5">
      <!-- 2000 -->
      <defs>
       <path d="M 19.1875 8.296875 
L 53.609375 8.296875 
L 53.609375 0 
L 7.328125 0 
L 7.328125 8.296875 
Q 12.9375 14.109375 22.625 23.890625 
Q 32.328125 33.6875 34.8125 36.53125 
Q 39.546875 41.84375 41.421875 45.53125 
Q 43.3125 49.21875 43.3125 52.78125 
Q 43.3125 58.59375 39.234375 62.25 
Q 35.15625 65.921875 28.609375 65.921875 
Q 23.96875 65.921875 18.8125 64.3125 
Q 13.671875 62.703125 7.8125 59.421875 
L 7.8125 69.390625 
Q 13.765625 71.78125 18.9375 73 
Q 24.125 74.21875 28.421875 74.21875 
Q 39.75 74.21875 46.484375 68.546875 
Q 53.21875 62.890625 53.21875 53.421875 
Q 53.21875 48.921875 51.53125 44.890625 
Q 49.859375 40.875 45.40625 35.40625 
Q 44.1875 33.984375 37.640625 27.21875 
Q 31.109375 20.453125 19.1875 8.296875 
z
" id="DejaVuSans-50"/>
      </defs>
      <g transform="translate(277.688478 322.182437)scale(0.1 -0.1)">
       <use xlink:href="#DejaVuSans-50"/>
       <use x="63.623047" xlink:href="#DejaVuSans-48"/>
       <use x="127.246094" xlink:href="#DejaVuSans-48"/>
       <use x="190.869141" xlink:href="#DejaVuSans-48"/>
      </g>
     </g>
    </g>
    <g id="xtick_6">
     <g id="line2d_11">
      <path clip-path="url(#p876d3aa0b4)" d="M 344.558666 307.584 
L 344.558666 41.472 
" style="fill:none;stroke:#b0b0b0;stroke-linecap:square;stroke-width:0.8;"/>
     </g>
     <g id="line2d_12">
      <g>
       <use style="stroke:#000000;stroke-width:0.8;" x="344.558666" xlink:href="#m9fd9de67dd" y="307.584"/>
      </g>
     </g>
     <g id="text_6">
      <!-- 2500 -->
      <g transform="translate(331.833666 322.182437)scale(0.1 -0.1)">
       <use xlink:href="#DejaVuSans-50"/>
       <use x="63.623047" xlink:href="#DejaVuSans-53"/>
       <use x="127.246094" xlink:href="#DejaVuSans-48"/>
       <use x="190.869141" xlink:href="#DejaVuSans-48"/>
      </g>
     </g>
    </g>
    <g id="xtick_7">
     <g id="line2d_13">
      <path clip-path="url(#p876d3aa0b4)" d="M 398.703853 307.584 
L 398.703853 41.472 
" style="fill:none;stroke:#b0b0b0;stroke-linecap:square;stroke-width:0.8;"/>
     </g>
     <g id="line2d_14">
      <g>
       <use style="stroke:#000000;stroke-width:0.8;" x="398.703853" xlink:href="#m9fd9de67dd" y="307.584"/>
      </g>
     </g>
     <g id="text_7">
      <!-- 3000 -->
      <defs>
       <path d="M 40.578125 39.3125 
Q 47.65625 37.796875 51.625 33 
Q 55.609375 28.21875 55.609375 21.1875 
Q 55.609375 10.40625 48.1875 4.484375 
Q 40.765625 -1.421875 27.09375 -1.421875 
Q 22.515625 -1.421875 17.65625 -0.515625 
Q 12.796875 0.390625 7.625 2.203125 
L 7.625 11.71875 
Q 11.71875 9.328125 16.59375 8.109375 
Q 21.484375 6.890625 26.8125 6.890625 
Q 36.078125 6.890625 40.9375 10.546875 
Q 45.796875 14.203125 45.796875 21.1875 
Q 45.796875 27.640625 41.28125 31.265625 
Q 36.765625 34.90625 28.71875 34.90625 
L 20.21875 34.90625 
L 20.21875 43.015625 
L 29.109375 43.015625 
Q 36.375 43.015625 40.234375 45.921875 
Q 44.09375 48.828125 44.09375 54.296875 
Q 44.09375 59.90625 40.109375 62.90625 
Q 36.140625 65.921875 28.71875 65.921875 
Q 24.65625 65.921875 20.015625 65.03125 
Q 15.375 64.15625 9.8125 62.3125 
L 9.8125 71.09375 
Q 15.4375 72.65625 20.34375 73.4375 
Q 25.25 74.21875 29.59375 74.21875 
Q 40.828125 74.21875 47.359375 69.109375 
Q 53.90625 64.015625 53.90625 55.328125 
Q 53.90625 49.265625 50.4375 45.09375 
Q 46.96875 40.921875 40.578125 39.3125 
z
" id="DejaVuSans-51"/>
      </defs>
      <g transform="translate(385.978853 322.182437)scale(0.1 -0.1)">
       <use xlink:href="#DejaVuSans-51"/>
       <use x="63.623047" xlink:href="#DejaVuSans-48"/>
       <use x="127.246094" xlink:href="#DejaVuSans-48"/>
       <use x="190.869141" xlink:href="#DejaVuSans-48"/>
      </g>
     </g>
    </g>
    <g id="text_8">
     <!-- Iteration -->
     <defs>
      <path d="M 9.8125 72.90625 
L 19.671875 72.90625 
L 19.671875 0 
L 9.8125 0 
z
" id="DejaVuSans-73"/>
      <path d="M 18.3125 70.21875 
L 18.3125 54.6875 
L 36.8125 54.6875 
L 36.8125 47.703125 
L 18.3125 47.703125 
L 18.3125 18.015625 
Q 18.3125 11.328125 20.140625 9.421875 
Q 21.96875 7.515625 27.59375 7.515625 
L 36.8125 7.515625 
L 36.8125 0 
L 27.59375 0 
Q 17.1875 0 13.234375 3.875 
Q 9.28125 7.765625 9.28125 18.015625 
L 9.28125 47.703125 
L 2.6875 47.703125 
L 2.6875 54.6875 
L 9.28125 54.6875 
L 9.28125 70.21875 
z
" id="DejaVuSans-116"/>
      <path d="M 56.203125 29.59375 
L 56.203125 25.203125 
L 14.890625 25.203125 
Q 15.484375 15.921875 20.484375 11.0625 
Q 25.484375 6.203125 34.421875 6.203125 
Q 39.59375 6.203125 44.453125 7.46875 
Q 49.3125 8.734375 54.109375 11.28125 
L 54.109375 2.78125 
Q 49.265625 0.734375 44.1875 -0.34375 
Q 39.109375 -1.421875 33.890625 -1.421875 
Q 20.796875 -1.421875 13.15625 6.1875 
Q 5.515625 13.8125 5.515625 26.8125 
Q 5.515625 40.234375 12.765625 48.109375 
Q 20.015625 56 32.328125 56 
Q 43.359375 56 49.78125 48.890625 
Q 56.203125 41.796875 56.203125 29.59375 
z
M 47.21875 32.234375 
Q 47.125 39.59375 43.09375 43.984375 
Q 39.0625 48.390625 32.421875 48.390625 
Q 24.90625 48.390625 20.390625 44.140625 
Q 15.875 39.890625 15.1875 32.171875 
z
" id="DejaVuSans-101"/>
      <path d="M 41.109375 46.296875 
Q 39.59375 47.171875 37.8125 47.578125 
Q 36.03125 48 33.890625 48 
Q 26.265625 48 22.1875 43.046875 
Q 18.109375 38.09375 18.109375 28.8125 
L 18.109375 0 
L 9.078125 0 
L 9.078125 54.6875 
L 18.109375 54.6875 
L 18.109375 46.1875 
Q 20.953125 51.171875 25.484375 53.578125 
Q 30.03125 56 36.53125 56 
Q 37.453125 56 38.578125 55.875 
Q 39.703125 55.765625 41.0625 55.515625 
z
" id="DejaVuSans-114"/>
      <path d="M 34.28125 27.484375 
Q 23.390625 27.484375 19.1875 25 
Q 14.984375 22.515625 14.984375 16.5 
Q 14.984375 11.71875 18.140625 8.90625 
Q 21.296875 6.109375 26.703125 6.109375 
Q 34.1875 6.109375 38.703125 11.40625 
Q 43.21875 16.703125 43.21875 25.484375 
L 43.21875 27.484375 
z
M 52.203125 31.203125 
L 52.203125 0 
L 43.21875 0 
L 43.21875 8.296875 
Q 40.140625 3.328125 35.546875 0.953125 
Q 30.953125 -1.421875 24.3125 -1.421875 
Q 15.921875 -1.421875 10.953125 3.296875 
Q 6 8.015625 6 15.921875 
Q 6 25.140625 12.171875 29.828125 
Q 18.359375 34.515625 30.609375 34.515625 
L 43.21875 34.515625 
L 43.21875 35.40625 
Q 43.21875 41.609375 39.140625 45 
Q 35.0625 48.390625 27.6875 48.390625 
Q 23 48.390625 18.546875 47.265625 
Q 14.109375 46.140625 10.015625 43.890625 
L 10.015625 52.203125 
Q 14.9375 54.109375 19.578125 55.046875 
Q 24.21875 56 28.609375 56 
Q 40.484375 56 46.34375 49.84375 
Q 52.203125 43.703125 52.203125 31.203125 
z
" id="DejaVuSans-97"/>
      <path d="M 9.421875 54.6875 
L 18.40625 54.6875 
L 18.40625 0 
L 9.421875 0 
z
M 9.421875 75.984375 
L 18.40625 75.984375 
L 18.40625 64.59375 
L 9.421875 64.59375 
z
" id="DejaVuSans-105"/>
      <path d="M 30.609375 48.390625 
Q 23.390625 48.390625 19.1875 42.75 
Q 14.984375 37.109375 14.984375 27.296875 
Q 14.984375 17.484375 19.15625 11.84375 
Q 23.34375 6.203125 30.609375 6.203125 
Q 37.796875 6.203125 41.984375 11.859375 
Q 46.1875 17.53125 46.1875 27.296875 
Q 46.1875 37.015625 41.984375 42.703125 
Q 37.796875 48.390625 30.609375 48.390625 
z
M 30.609375 56 
Q 42.328125 56 49.015625 48.375 
Q 55.71875 40.765625 55.71875 27.296875 
Q 55.71875 13.875 49.015625 6.21875 
Q 42.328125 -1.421875 30.609375 -1.421875 
Q 18.84375 -1.421875 12.171875 6.21875 
Q 5.515625 13.875 5.515625 27.296875 
Q 5.515625 40.765625 12.171875 48.375 
Q 18.84375 56 30.609375 56 
z
" id="DejaVuSans-111"/>
      <path d="M 54.890625 33.015625 
L 54.890625 0 
L 45.90625 0 
L 45.90625 32.71875 
Q 45.90625 40.484375 42.875 44.328125 
Q 39.84375 48.1875 33.796875 48.1875 
Q 26.515625 48.1875 22.3125 43.546875 
Q 18.109375 38.921875 18.109375 30.90625 
L 18.109375 0 
L 9.078125 0 
L 9.078125 54.6875 
L 18.109375 54.6875 
L 18.109375 46.1875 
Q 21.34375 51.125 25.703125 53.5625 
Q 30.078125 56 35.796875 56 
Q 45.21875 56 50.046875 50.171875 
Q 54.890625 44.34375 54.890625 33.015625 
z
" id="DejaVuSans-110"/>
     </defs>
     <g transform="translate(214.951406 335.860562)scale(0.1 -0.1)">
      <use xlink:href="#DejaVuSans-73"/>
      <use x="29.492188" xlink:href="#DejaVuSans-116"/>
      <use x="68.701172" xlink:href="#DejaVuSans-101"/>
      <use x="130.224609" xlink:href="#DejaVuSans-114"/>
      <use x="171.337891" xlink:href="#DejaVuSans-97"/>
      <use x="232.617188" xlink:href="#DejaVuSans-116"/>
      <use x="271.826172" xlink:href="#DejaVuSans-105"/>
      <use x="299.609375" xlink:href="#DejaVuSans-111"/>
      <use x="360.791016" xlink:href="#DejaVuSans-110"/>
     </g>
    </g>
   </g>
   <g id="matplotlib.axis_2">
    <g id="ytick_1">
     <g id="line2d_15">
      <path clip-path="url(#p876d3aa0b4)" d="M 57.6 288.630271 
L 414.72 288.630271 
" style="fill:none;stroke:#b0b0b0;stroke-linecap:square;stroke-width:0.8;"/>
     </g>
     <g id="line2d_16">
      <defs>
       <path d="M 0 0 
L -3.5 0 
" id="mc6c20c9f04" style="stroke:#000000;stroke-width:0.8;"/>
      </defs>
      <g>
       <use style="stroke:#000000;stroke-width:0.8;" x="57.6" xlink:href="#mc6c20c9f04" y="288.630271"/>
      </g>
     </g>
     <g id="text_9">
      <!-- −2000 -->
      <defs>
       <path d="M 10.59375 35.5 
L 73.1875 35.5 
L 73.1875 27.203125 
L 10.59375 27.203125 
z
" id="DejaVuSans-8722"/>
      </defs>
      <g transform="translate(16.770313 292.429489)scale(0.1 -0.1)">
       <use xlink:href="#DejaVuSans-8722"/>
       <use x="83.789062" xlink:href="#DejaVuSans-50"/>
       <use x="147.412109" xlink:href="#DejaVuSans-48"/>
       <use x="211.035156" xlink:href="#DejaVuSans-48"/>
       <use x="274.658203" xlink:href="#DejaVuSans-48"/>
      </g>
     </g>
    </g>
    <g id="ytick_2">
     <g id="line2d_17">
      <path clip-path="url(#p876d3aa0b4)" d="M 57.6 241.6608 
L 414.72 241.6608 
" style="fill:none;stroke:#b0b0b0;stroke-linecap:square;stroke-width:0.8;"/>
     </g>
     <g id="line2d_18">
      <g>
       <use style="stroke:#000000;stroke-width:0.8;" x="57.6" xlink:href="#mc6c20c9f04" y="241.6608"/>
      </g>
     </g>
     <g id="text_10">
      <!-- −1500 -->
      <g transform="translate(16.770313 245.460018)scale(0.1 -0.1)">
       <use xlink:href="#DejaVuSans-8722"/>
       <use x="83.789062" xlink:href="#DejaVuSans-49"/>
       <use x="147.412109" xlink:href="#DejaVuSans-53"/>
       <use x="211.035156" xlink:href="#DejaVuSans-48"/>
       <use x="274.658203" xlink:href="#DejaVuSans-48"/>
      </g>
     </g>
    </g>
    <g id="ytick_3">
     <g id="line2d_19">
      <path clip-path="url(#p876d3aa0b4)" d="M 57.6 194.691329 
L 414.72 194.691329 
" style="fill:none;stroke:#b0b0b0;stroke-linecap:square;stroke-width:0.8;"/>
     </g>
     <g id="line2d_20">
      <g>
       <use style="stroke:#000000;stroke-width:0.8;" x="57.6" xlink:href="#mc6c20c9f04" y="194.691329"/>
      </g>
     </g>
     <g id="text_11">
      <!-- −1000 -->
      <g transform="translate(16.770313 198.490547)scale(0.1 -0.1)">
       <use xlink:href="#DejaVuSans-8722"/>
       <use x="83.789062" xlink:href="#DejaVuSans-49"/>
       <use x="147.412109" xlink:href="#DejaVuSans-48"/>
       <use x="211.035156" xlink:href="#DejaVuSans-48"/>
       <use x="274.658203" xlink:href="#DejaVuSans-48"/>
      </g>
     </g>
    </g>
    <g id="ytick_4">
     <g id="line2d_21">
      <path clip-path="url(#p876d3aa0b4)" d="M 57.6 147.721858 
L 414.72 147.721858 
" style="fill:none;stroke:#b0b0b0;stroke-linecap:square;stroke-width:0.8;"/>
     </g>
     <g id="line2d_22">
      <g>
       <use style="stroke:#000000;stroke-width:0.8;" x="57.6" xlink:href="#mc6c20c9f04" y="147.721858"/>
      </g>
     </g>
     <g id="text_12">
      <!-- −500 -->
      <g transform="translate(23.132812 151.521076)scale(0.1 -0.1)">
       <use xlink:href="#DejaVuSans-8722"/>
       <use x="83.789062" xlink:href="#DejaVuSans-53"/>
       <use x="147.412109" xlink:href="#DejaVuSans-48"/>
       <use x="211.035156" xlink:href="#DejaVuSans-48"/>
      </g>
     </g>
    </g>
    <g id="ytick_5">
     <g id="line2d_23">
      <path clip-path="url(#p876d3aa0b4)" d="M 57.6 100.752387 
L 414.72 100.752387 
" style="fill:none;stroke:#b0b0b0;stroke-linecap:square;stroke-width:0.8;"/>
     </g>
     <g id="line2d_24">
      <g>
       <use style="stroke:#000000;stroke-width:0.8;" x="57.6" xlink:href="#mc6c20c9f04" y="100.752387"/>
      </g>
     </g>
     <g id="text_13">
      <!-- 0 -->
      <g transform="translate(44.2375 104.551605)scale(0.1 -0.1)">
       <use xlink:href="#DejaVuSans-48"/>
      </g>
     </g>
    </g>
    <g id="ytick_6">
     <g id="line2d_25">
      <path clip-path="url(#p876d3aa0b4)" d="M 57.6 53.782916 
L 414.72 53.782916 
" style="fill:none;stroke:#b0b0b0;stroke-linecap:square;stroke-width:0.8;"/>
     </g>
     <g id="line2d_26">
      <g>
       <use style="stroke:#000000;stroke-width:0.8;" x="57.6" xlink:href="#mc6c20c9f04" y="53.782916"/>
      </g>
     </g>
     <g id="text_14">
      <!-- 500 -->
      <g transform="translate(31.5125 57.582135)scale(0.1 -0.1)">
       <use xlink:href="#DejaVuSans-53"/>
       <use x="63.623047" xlink:href="#DejaVuSans-48"/>
       <use x="127.246094" xlink:href="#DejaVuSans-48"/>
      </g>
     </g>
    </g>
    <g id="text_15">
     <!-- Quality -->
     <defs>
      <path d="M 39.40625 66.21875 
Q 28.65625 66.21875 22.328125 58.203125 
Q 16.015625 50.203125 16.015625 36.375 
Q 16.015625 22.609375 22.328125 14.59375 
Q 28.65625 6.59375 39.40625 6.59375 
Q 50.140625 6.59375 56.421875 14.59375 
Q 62.703125 22.609375 62.703125 36.375 
Q 62.703125 50.203125 56.421875 58.203125 
Q 50.140625 66.21875 39.40625 66.21875 
z
M 53.21875 1.3125 
L 66.21875 -12.890625 
L 54.296875 -12.890625 
L 43.5 -1.21875 
Q 41.890625 -1.3125 41.03125 -1.359375 
Q 40.1875 -1.421875 39.40625 -1.421875 
Q 24.03125 -1.421875 14.8125 8.859375 
Q 5.609375 19.140625 5.609375 36.375 
Q 5.609375 53.65625 14.8125 63.9375 
Q 24.03125 74.21875 39.40625 74.21875 
Q 54.734375 74.21875 63.90625 63.9375 
Q 73.09375 53.65625 73.09375 36.375 
Q 73.09375 23.6875 67.984375 14.640625 
Q 62.890625 5.609375 53.21875 1.3125 
z
" id="DejaVuSans-81"/>
      <path d="M 8.5 21.578125 
L 8.5 54.6875 
L 17.484375 54.6875 
L 17.484375 21.921875 
Q 17.484375 14.15625 20.5 10.265625 
Q 23.53125 6.390625 29.59375 6.390625 
Q 36.859375 6.390625 41.078125 11.03125 
Q 45.3125 15.671875 45.3125 23.6875 
L 45.3125 54.6875 
L 54.296875 54.6875 
L 54.296875 0 
L 45.3125 0 
L 45.3125 8.40625 
Q 42.046875 3.421875 37.71875 1 
Q 33.40625 -1.421875 27.6875 -1.421875 
Q 18.265625 -1.421875 13.375 4.4375 
Q 8.5 10.296875 8.5 21.578125 
z
M 31.109375 56 
z
" id="DejaVuSans-117"/>
      <path d="M 9.421875 75.984375 
L 18.40625 75.984375 
L 18.40625 0 
L 9.421875 0 
z
" id="DejaVuSans-108"/>
      <path d="M 32.171875 -5.078125 
Q 28.375 -14.84375 24.75 -17.8125 
Q 21.140625 -20.796875 15.09375 -20.796875 
L 7.90625 -20.796875 
L 7.90625 -13.28125 
L 13.1875 -13.28125 
Q 16.890625 -13.28125 18.9375 -11.515625 
Q 21 -9.765625 23.484375 -3.21875 
L 25.09375 0.875 
L 2.984375 54.6875 
L 12.5 54.6875 
L 29.59375 11.921875 
L 46.6875 54.6875 
L 56.203125 54.6875 
z
" id="DejaVuSans-121"/>
     </defs>
     <g transform="translate(10.690625 192.394406)rotate(-90)scale(0.1 -0.1)">
      <use xlink:href="#DejaVuSans-81"/>
      <use x="78.710938" xlink:href="#DejaVuSans-117"/>
      <use x="142.089844" xlink:href="#DejaVuSans-97"/>
      <use x="203.369141" xlink:href="#DejaVuSans-108"/>
      <use x="231.152344" xlink:href="#DejaVuSans-105"/>
      <use x="258.935547" xlink:href="#DejaVuSans-116"/>
      <use x="298.144531" xlink:href="#DejaVuSans-121"/>
     </g>
    </g>
   </g>
   <g id="line2d_27">
    <path clip-path="url(#p876d3aa0b4)" d="M 73.832727 164.659448 
L 74.049308 90.691413 
L 74.265889 235.592984 
L 74.48247 79.304208 
L 74.59076 95.836916 
L 74.69905 257.288206 
L 74.807341 207.348671 
L 75.023921 65.536363 
L 75.240502 98.009075 
L 75.457083 228.742711 
L 75.565373 237.251608 
L 75.673664 88.627349 
L 75.781954 250.735586 
L 75.998535 93.395534 
L 76.106825 92.178532 
L 76.215116 65.712999 
L 76.323406 96.706562 
L 76.431696 92.543286 
L 76.648277 185.078199 
L 76.756567 247.726856 
L 76.864858 217.391093 
L 76.973148 97.349442 
L 77.081439 151.171567 
L 77.189729 73.958793 
L 77.298019 237.849717 
L 77.40631 196.312217 
L 77.5146 85.445733 
L 77.62289 255.808466 
L 77.839471 228.252009 
L 78.056052 98.304625 
L 78.164342 272.244104 
L 78.380923 99.842746 
L 78.489213 120.684654 
L 78.705794 261.366445 
L 78.814085 251.212034 
L 79.030665 96.111309 
L 79.247246 246.865813 
L 79.355536 73.606176 
L 79.572117 131.759327 
L 79.680408 280.265669 
L 79.788698 276.027026 
L 79.896988 211.08163 
L 80.005279 227.4375 
L 80.221859 78.929052 
L 80.33015 264.505629 
L 80.546731 119.205818 
L 80.655021 214.451315 
L 80.763311 76.440264 
L 80.871602 272.97644 
L 80.979892 251.958891 
L 81.088182 117.128127 
L 81.196473 246.422492 
L 81.521344 180.207523 
L 81.737925 214.564387 
L 81.846215 94.251565 
L 81.954505 136.53179 
L 82.171086 248.91209 
L 82.279377 248.531364 
L 82.387667 227.807026 
L 82.495957 257.434856 
L 82.712538 80.207568 
L 82.820828 109.640322 
L 82.929119 285.182311 
L 83.037409 83.011819 
L 83.25399 253.940841 
L 83.470571 276.027026 
L 83.578861 260.674449 
L 83.687151 76.924233 
L 83.795442 276.01642 
L 83.903732 228.333289 
L 84.012023 292.278067 
L 84.120313 275.615812 
L 84.228603 112.74643 
L 84.445184 280.372456 
L 84.553474 177.545581 
L 84.661765 270.781012 
L 84.770055 96.241963 
L 84.878346 101.939363 
L 85.094926 264.833193 
L 85.203217 266.423605 
L 85.311507 62.984538 
L 85.419797 244.476583 
L 85.528088 232.649707 
L 85.744669 152.716884 
L 85.852959 276.027026 
L 86.06954 209.73957 
L 86.28612 100.496834 
L 86.502701 237.822817 
L 86.610992 215.283662 
L 86.719282 285.742222 
L 86.827572 94.198416 
L 86.935863 165.139493 
L 87.044153 60.123538 
L 87.152443 96.595894 
L 87.260734 95.558773 
L 87.369024 236.887541 
L 87.477315 82.94313 
L 87.585605 146.346804 
L 87.693895 295.488 
L 87.910476 184.06518 
L 88.018766 65.658569 
L 88.127057 140.390304 
L 88.343638 101.547575 
L 88.451928 234.536283 
L 88.560218 103.294991 
L 88.668509 249.102414 
L 88.776799 96.125566 
L 88.885089 193.599518 
L 89.10167 86.241429 
L 89.318251 243.861611 
L 89.426541 159.417397 
L 89.534832 258.400744 
L 89.643122 75.549676 
L 89.751412 232.416344 
L 89.859703 62.99161 
L 89.967993 278.094503 
L 90.076284 147.094023 
L 90.292864 288.188856 
L 90.401155 84.27874 
L 90.509445 200.045802 
L 90.726026 74.367213 
L 91.050897 264.620413 
L 91.267478 79.403397 
L 91.375768 242.354826 
L 91.592349 102.211536 
L 91.80893 271.948958 
L 91.91722 80.111342 
L 92.02551 95.331395 
L 92.133801 78.442038 
L 92.242091 210.287306 
L 92.350381 65.178321 
L 92.458672 89.892144 
L 92.566962 71.557983 
L 92.675253 249.404346 
L 92.783543 65.348657 
L 92.891833 78.020971 
L 93.000124 68.551923 
L 93.108414 217.361587 
L 93.216704 64.847371 
L 93.324995 248.505381 
L 93.433285 65.431235 
L 93.541576 96.012356 
L 93.649866 65.755527 
L 93.758156 106.286392 
L 93.866447 251.414126 
L 93.974737 65.629382 
L 94.083027 127.174374 
L 94.191318 270.185543 
L 94.299608 75.558181 
L 94.407899 248.128859 
L 94.516189 194.061741 
L 94.624479 257.479389 
L 94.84106 62.362746 
L 94.94935 76.541016 
L 95.165931 70.956097 
L 95.274222 64.955057 
L 95.382512 76.992093 
L 95.490802 116.288884 
L 95.599093 76.445234 
L 95.707383 234.977538 
L 95.815673 83.890411 
L 95.923964 151.361424 
L 96.032254 124.410147 
L 96.140545 280.649528 
L 96.357125 70.907841 
L 96.681996 138.736668 
L 96.790287 190.432434 
L 96.898577 72.467749 
L 97.006868 234.130893 
L 97.115158 77.982874 
L 97.331739 238.303537 
L 97.440029 268.28373 
L 97.548319 194.430031 
L 97.873191 282.181478 
L 98.089771 71.104247 
L 98.198062 246.382432 
L 98.306352 158.824906 
L 98.414642 292.335235 
L 98.522933 256.222274 
L 98.631223 87.407644 
L 98.739514 250.529106 
L 98.847804 78.612704 
L 98.956094 205.929598 
L 99.064385 142.830782 
L 99.172675 280.795809 
L 99.497546 74.91755 
L 99.605837 185.018879 
L 99.714127 107.96233 
L 99.930708 240.482678 
L 100.038998 59.031516 
L 100.147288 269.378203 
L 100.363869 74.273759 
L 100.47216 96.483947 
L 100.58045 74.619833 
L 100.68874 236.942367 
L 100.797031 77.782574 
L 100.905321 80.502628 
L 101.013611 64.171555 
L 101.230192 104.393852 
L 101.338483 237.255992 
L 101.446773 77.558586 
L 101.663354 266.188449 
L 101.771644 65.545194 
L 101.879935 226.028402 
L 102.096515 175.38083 
L 102.204806 229.255067 
L 102.313096 69.438283 
L 102.421386 94.59808 
L 102.637967 246.889852 
L 102.746258 240.054931 
L 102.854548 271.531604 
L 102.962838 77.598747 
L 103.071129 121.386727 
L 103.179419 84.047432 
L 103.287709 229.687252 
L 103.396 62.390349 
L 103.612581 239.004069 
L 103.720871 243.791055 
L 103.829161 71.256618 
L 103.937452 99.952105 
L 104.045742 232.91956 
L 104.154032 216.505042 
L 104.262323 235.95119 
L 104.370613 66.045159 
L 104.478904 291.999759 
L 104.695484 80.436869 
L 104.803775 170.033901 
L 104.912065 148.543687 
L 105.020355 239.433272 
L 105.128646 69.230313 
L 105.236936 72.080135 
L 105.345227 134.123885 
L 105.453517 74.67382 
L 105.561807 77.823026 
L 105.670098 116.932078 
L 105.778388 63.206898 
L 105.886678 208.093145 
L 105.994969 97.935554 
L 106.103259 115.096416 
L 106.21155 61.644699 
L 106.31984 62.201187 
L 106.42813 63.535638 
L 106.536421 71.640905 
L 106.644711 63.000008 
L 106.753001 220.916969 
L 106.969582 57.444649 
L 107.077873 221.032538 
L 107.186163 208.850418 
L 107.294453 66.81791 
L 107.402744 236.694184 
L 107.511034 76.87113 
L 107.619324 249.163742 
L 107.727615 213.620723 
L 107.835905 244.590641 
L 108.160776 64.374817 
L 108.269067 99.885925 
L 108.377357 183.573659 
L 108.485647 59.718895 
L 108.593938 218.471027 
L 108.702228 68.13179 
L 108.810519 226.073365 
L 109.027099 71.448152 
L 109.24368 217.491929 
L 109.35197 163.224699 
L 109.460261 164.334927 
L 109.568551 227.130962 
L 109.676842 96.650777 
L 109.785132 233.230616 
L 109.893422 94.758771 
L 110.001713 99.252437 
L 110.110003 244.15044 
L 110.218293 124.154833 
L 110.326584 193.509773 
L 110.543165 68.775494 
L 110.651455 73.971221 
L 110.868036 66.369674 
L 110.976326 81.663346 
L 111.192907 250.830517 
L 111.301197 60.461148 
L 111.409488 255.885494 
L 111.626068 220.72547 
L 111.734359 229.642067 
L 111.842649 71.383573 
L 111.950939 239.398997 
L 112.16752 58.889564 
L 112.275811 76.769531 
L 112.384101 63.237713 
L 112.492391 214.097062 
L 112.708972 59.335699 
L 112.817262 62.108623 
L 113.033843 64.527388 
L 113.142134 59.766686 
L 113.250424 81.263302 
L 113.467005 217.322367 
L 113.575295 217.19212 
L 113.683585 68.878847 
L 113.791876 256.016188 
L 113.900166 251.358613 
L 114.008457 128.326249 
L 114.116747 239.226998 
L 114.225037 60.980618 
L 114.333328 210.380775 
L 114.441618 166.864052 
L 114.658199 248.322328 
L 114.766489 61.043891 
L 114.87478 148.905735 
L 115.09136 70.364161 
L 115.307941 237.776014 
L 115.416231 101.267253 
L 115.524522 229.56485 
L 115.741103 61.729026 
L 115.849393 261.006041 
L 115.957683 228.836695 
L 116.174264 116.495967 
L 116.282554 273.279204 
L 116.499135 145.517788 
L 116.607426 182.470388 
L 116.715716 62.192613 
L 116.932297 240.010289 
L 117.040587 230.310396 
L 117.148877 60.578621 
L 117.257168 144.824108 
L 117.365458 60.662797 
L 117.473749 152.289908 
L 117.582039 100.992004 
L 117.690329 234.940553 
L 117.79862 75.19687 
L 117.90691 122.571246 
L 118.0152 75.90912 
L 118.123491 128.835768 
L 118.231781 60.550972 
L 118.448362 169.796818 
L 118.556652 55.672803 
L 118.664943 92.168067 
L 118.773233 90.962636 
L 118.881523 85.071141 
L 118.989814 60.820858 
L 119.098104 246.534975 
L 119.314685 62.230363 
L 119.422975 147.131108 
L 119.531266 91.128917 
L 119.747846 223.688191 
L 120.072718 62.66324 
L 120.181008 239.734843 
L 120.289298 218.564945 
L 120.397589 124.361255 
L 120.505879 232.234034 
L 120.614169 217.754651 
L 120.72246 136.368858 
L 120.83075 210.973789 
L 121.047331 58.533293 
L 121.263912 258.751676 
L 121.372202 238.729458 
L 121.480492 180.873271 
L 121.588783 250.116241 
L 121.805364 136.273979 
L 121.913654 172.465381 
L 122.021944 259.104106 
L 122.130235 89.73854 
L 122.238525 162.688577 
L 122.346815 73.817761 
L 122.455106 94.255407 
L 122.563396 182.248132 
L 122.779977 101.627812 
L 122.996558 252.563899 
L 123.104848 208.526464 
L 123.213138 215.010753 
L 123.321429 117.021797 
L 123.429719 159.062217 
L 123.53801 124.535016 
L 123.6463 159.925936 
L 123.75459 246.812422 
L 123.971171 63.138351 
L 124.187752 228.560034 
L 124.404333 62.332999 
L 124.512623 222.98744 
L 124.837494 108.877339 
L 124.945784 235.93962 
L 125.054075 60.751805 
L 125.270656 70.631485 
L 125.378946 123.521347 
L 125.487236 61.01112 
L 125.595527 273.221558 
L 125.703817 236.867758 
L 125.812107 132.939224 
L 125.920398 151.15512 
L 126.028688 248.054126 
L 126.245269 60.523273 
L 126.353559 233.6409 
L 126.46185 89.883404 
L 126.57014 94.137257 
L 126.67843 109.079662 
L 126.786721 71.141436 
L 126.895011 204.269729 
L 127.003302 182.354943 
L 127.111592 76.099775 
L 127.328173 214.328398 
L 127.436463 72.051148 
L 127.544753 201.483874 
L 127.761334 126.359611 
L 127.977915 152.015277 
L 128.086205 226.944233 
L 128.194496 180.68968 
L 128.302786 65.205629 
L 128.411076 96.719297 
L 128.627657 225.070111 
L 128.735948 61.805528 
L 128.844238 136.658843 
L 128.952528 65.010758 
L 129.060819 148.365469 
L 129.169109 61.259115 
L 129.277399 222.623875 
L 129.38569 59.87827 
L 129.49398 136.339912 
L 129.602271 61.454529 
L 129.710561 134.472894 
L 129.818851 62.616273 
L 130.035432 235.670361 
L 130.252013 115.998095 
L 130.468594 153.143427 
L 130.576884 232.533938 
L 130.685174 70.217774 
L 130.901755 86.026187 
L 131.010045 203.733724 
L 131.226626 57.711794 
L 131.334917 135.39298 
L 131.551497 54.878308 
L 131.659788 162.340175 
L 131.876368 65.899252 
L 131.984659 160.036111 
L 132.20124 60.336863 
L 132.30953 118.409315 
L 132.41782 59.518672 
L 132.526111 92.259967 
L 132.634401 73.570202 
L 132.850982 130.964852 
L 132.959272 160.505193 
L 133.067563 139.798482 
L 133.175853 264.662187 
L 133.284143 65.81548 
L 133.392434 126.19554 
L 133.500724 63.79718 
L 133.609014 258.165315 
L 133.717305 118.703845 
L 133.933886 167.168747 
L 134.150466 57.888178 
L 134.258757 168.630407 
L 134.583628 78.039946 
L 134.691918 63.173589 
L 134.908499 235.699831 
L 135.12508 67.775926 
L 135.23337 65.595683 
L 135.341661 236.179262 
L 135.449951 122.678344 
L 135.558241 160.74238 
L 135.883112 55.935909 
L 135.991403 97.028802 
L 136.099693 59.860439 
L 136.207984 69.966857 
L 136.316274 69.694052 
L 136.424564 94.219032 
L 136.532855 61.132267 
L 136.641145 124.297686 
L 136.749435 60.597557 
L 136.857726 61.742614 
L 137.074307 139.49011 
L 137.182597 128.721068 
L 137.290887 105.766623 
L 137.399178 199.763246 
L 137.507468 59.420191 
L 137.724049 158.104684 
L 137.832339 65.094151 
L 137.94063 157.292019 
L 138.15721 127.474812 
L 138.265501 168.118836 
L 138.482081 66.324544 
L 138.698662 143.721826 
L 138.915243 109.381361 
L 139.023533 95.81317 
L 139.131824 63.911162 
L 139.240114 163.742279 
L 139.348404 63.750233 
L 139.456695 154.63888 
L 139.564985 60.41239 
L 139.673276 68.719033 
L 139.889856 228.458222 
L 140.106437 65.066989 
L 140.214727 135.478816 
L 140.323018 89.854959 
L 140.431308 158.560729 
L 140.539599 67.79983 
L 140.647889 170.527652 
L 140.756179 127.816214 
L 140.86447 130.089335 
L 140.97276 118.901245 
L 141.08105 61.116722 
L 141.189341 184.138362 
L 141.297631 145.637716 
L 141.405922 64.513303 
L 141.514212 150.726715 
L 141.622502 115.923683 
L 141.730793 116.640219 
L 141.839083 224.80596 
L 141.947373 58.748733 
L 142.055664 153.953303 
L 142.163954 130.008549 
L 142.272245 137.878899 
L 142.380535 164.537897 
L 142.488825 162.116603 
L 142.597116 141.378651 
L 142.705406 62.783641 
L 142.921987 227.425884 
L 143.030277 111.503934 
L 143.138568 122.146565 
L 143.246858 146.12822 
L 143.355148 60.326435 
L 143.571729 144.866513 
L 143.680019 149.026334 
L 143.78831 164.35521 
L 143.8966 149.930144 
L 144.004891 64.169125 
L 144.113181 127.067951 
L 144.221471 54.473473 
L 144.438052 155.889178 
L 144.546342 55.141222 
L 144.654633 104.690419 
L 144.762923 63.147661 
L 144.871214 64.417067 
L 144.979504 161.615307 
L 145.087794 141.729338 
L 145.196085 61.993782 
L 145.304375 125.454527 
L 145.412665 63.522512 
L 145.520956 161.991708 
L 145.737537 65.118647 
L 145.845827 114.323046 
L 145.954117 75.131111 
L 146.170698 235.285264 
L 146.387279 126.258448 
L 146.495569 169.4237 
L 146.71215 56.448707 
L 146.82044 135.259062 
L 146.928731 63.136604 
L 147.253602 234.267896 
L 147.470183 131.729959 
L 147.578473 56.547835 
L 147.903344 213.88812 
L 148.011634 191.557522 
L 148.228215 118.385543 
L 148.336506 123.603325 
L 148.444796 121.885942 
L 148.553086 176.573898 
L 148.661377 146.840418 
L 148.769667 229.778059 
L 148.986248 136.02756 
L 149.094538 137.45853 
L 149.202829 113.473657 
L 149.311119 63.439253 
L 149.419409 67.468396 
L 149.5277 60.5078 
L 149.63599 62.204579 
L 149.74428 126.254075 
L 149.852571 114.846849 
L 149.960861 150.110858 
L 150.069152 63.979368 
L 150.285732 133.422892 
L 150.394023 58.63567 
L 150.502313 150.025748 
L 150.718894 55.630332 
L 150.935475 133.604612 
L 151.043765 131.370896 
L 151.152055 159.837419 
L 151.260346 63.980502 
L 151.368636 142.242818 
L 151.476926 133.129524 
L 151.585217 235.962893 
L 151.910088 55.769308 
L 152.018378 155.507573 
L 152.126669 152.327448 
L 152.234959 158.463891 
L 152.343249 177.896713 
L 152.45154 62.453393 
L 152.55983 138.436055 
L 152.668121 57.443935 
L 152.992992 160.644561 
L 153.101282 131.535218 
L 153.209572 166.483245 
L 153.426153 143.029945 
L 153.534444 63.020189 
L 153.642734 115.032201 
L 153.751024 63.347079 
L 153.859315 136.991444 
L 153.967605 128.933865 
L 154.075895 180.566353 
L 154.184186 61.486059 
L 154.292476 115.286889 
L 154.400767 63.792876 
L 154.617347 148.829114 
L 154.725638 119.229317 
L 154.833928 57.800464 
L 154.942218 156.545364 
L 155.050509 134.226508 
L 155.158799 61.221242 
L 155.37538 141.588188 
L 155.48367 117.900933 
L 155.591961 60.051458 
L 155.808541 142.955022 
L 155.916832 63.657691 
L 156.025122 199.807682 
L 156.241703 55.65238 
L 156.349993 171.151795 
L 156.458284 128.881218 
L 156.674864 177.991721 
L 156.783155 64.014428 
L 156.891445 136.645956 
L 156.999736 69.026797 
L 157.216316 151.666875 
L 157.324607 141.237084 
L 157.432897 68.850519 
L 157.541187 161.099617 
L 157.649478 112.881875 
L 157.866059 159.044581 
L 157.974349 62.927842 
L 158.082639 64.674371 
L 158.19093 115.609826 
L 158.29922 97.382221 
L 158.40751 55.803662 
L 158.515801 128.624876 
L 158.624091 61.768104 
L 158.732382 113.153233 
L 158.948962 54.438286 
L 159.057253 55.156634 
L 159.165543 151.952161 
L 159.273833 137.873482 
L 159.382124 61.648027 
L 159.598705 160.013075 
L 159.815285 124.88642 
L 159.923576 55.799244 
L 160.140156 139.133697 
L 160.248447 136.434019 
L 160.356737 234.312445 
L 160.465028 63.10843 
L 160.681608 146.476009 
L 160.789899 151.3112 
L 160.898189 167.935196 
L 161.006479 105.319078 
L 161.22306 120.255019 
L 161.331351 174.180699 
L 161.439641 99.919898 
L 161.656222 137.037619 
L 161.764512 75.40506 
L 161.872802 146.956215 
L 161.981093 122.435955 
L 162.089383 148.324121 
L 162.305964 128.870173 
L 162.414254 60.96052 
L 162.522545 66.308115 
L 162.630835 182.733243 
L 162.739125 66.735071 
L 162.847416 120.063135 
L 163.063997 58.817444 
L 163.280577 173.878793 
L 163.388868 189.274915 
L 163.497158 133.26581 
L 163.605448 179.975014 
L 163.713739 60.679565 
L 163.93032 158.963089 
L 164.03861 129.034806 
L 164.1469 157.523172 
L 164.471771 130.072053 
L 164.580062 108.757985 
L 164.688352 242.868409 
L 164.796643 63.110005 
L 164.904933 142.434162 
L 165.013223 68.04159 
L 165.229804 182.617121 
L 165.338094 66.900261 
L 165.662966 181.420264 
L 165.771256 114.669427 
L 165.879546 174.869524 
L 165.987837 172.960346 
L 166.096127 73.852609 
L 166.204417 158.147477 
L 166.312708 122.568438 
L 166.529289 140.504197 
L 166.637579 65.763021 
L 166.85416 125.203439 
L 166.96245 67.811992 
L 167.07074 120.961822 
L 167.179031 54.970359 
L 167.287321 62.529955 
L 167.503902 220.206001 
L 167.612192 165.140314 
L 167.720483 218.429687 
L 167.937063 141.471332 
L 168.045354 126.027283 
L 168.153644 167.525702 
L 168.261935 166.294293 
L 168.370225 137.940921 
L 168.478515 57.279628 
L 168.586806 227.443946 
L 168.803387 55.847906 
L 168.911677 112.435733 
L 169.019967 57.476514 
L 169.128258 181.919918 
L 169.236548 59.972866 
L 169.453129 160.033551 
L 169.561419 176.352442 
L 169.66971 62.131772 
L 169.778 128.481178 
L 169.88629 65.324404 
L 169.994581 127.017358 
L 170.102871 112.313842 
L 170.211161 179.709776 
L 170.427742 60.222469 
L 170.536033 59.885837 
L 170.644323 169.573353 
L 170.752613 63.999805 
L 170.969194 238.819693 
L 171.185775 122.864823 
L 171.294065 140.526764 
L 171.402356 174.516089 
L 171.618936 144.122434 
L 171.727227 176.448213 
L 171.835517 60.42235 
L 171.943807 215.889409 
L 172.052098 142.462849 
L 172.268679 184.543487 
L 172.376969 103.558626 
L 172.485259 174.743113 
L 172.59355 157.940021 
L 172.70184 61.474817 
L 172.918421 269.009612 
L 173.135002 55.846574 
L 173.243292 245.934735 
L 173.351582 106.589696 
L 173.459873 126.444375 
L 173.676453 119.863897 
L 173.893034 144.210831 
L 174.001325 63.966274 
L 174.217905 145.420826 
L 174.326196 145.399173 
L 174.651067 169.809174 
L 174.759357 138.481184 
L 174.867648 238.269118 
L 174.975938 89.466928 
L 175.084228 181.922774 
L 175.192519 62.916498 
L 175.300809 220.100078 
L 175.51739 62.747266 
L 175.62568 142.933967 
L 175.733971 135.633482 
L 175.842261 144.546802 
L 175.950551 182.160434 
L 176.058842 140.979464 
L 176.167132 177.752122 
L 176.275422 144.048885 
L 176.383713 71.16616 
L 176.492003 132.613625 
L 176.600294 61.785793 
L 176.816874 193.077199 
L 176.925165 132.563494 
L 177.033455 141.2912 
L 177.141745 225.858996 
L 177.250036 65.427752 
L 177.358326 146.946049 
L 177.466617 141.092043 
L 177.574907 217.973899 
L 177.791488 122.32086 
L 177.899778 217.147485 
L 178.224649 85.84967 
L 178.33294 108.854331 
L 178.44123 162.701112 
L 178.54952 153.9509 
L 178.657811 62.40612 
L 178.766101 62.881244 
L 178.982682 185.762795 
L 179.090972 158.449587 
L 179.199263 168.592674 
L 179.307553 125.486684 
L 179.524134 145.031923 
L 179.632424 136.502129 
L 179.740714 178.400944 
L 179.849005 127.014296 
L 179.957295 139.524023 
L 180.065586 169.416894 
L 180.282166 122.270813 
L 180.498747 183.197697 
L 180.715328 145.589878 
L 180.823618 142.43634 
L 180.931909 61.538011 
L 181.040199 68.768728 
L 181.148489 197.726291 
L 181.25678 127.131563 
L 181.36507 138.454013 
L 181.47336 59.717867 
L 181.581651 66.144695 
L 181.689941 204.683214 
L 181.798232 132.852449 
L 181.906522 205.16659 
L 182.123103 115.9225 
L 182.339683 149.074924 
L 182.556264 158.30662 
L 182.664555 186.75687 
L 182.989426 56.220526 
L 183.206006 171.847211 
L 183.314297 126.823191 
L 183.422587 186.101689 
L 183.530878 58.36545 
L 183.639168 82.443707 
L 183.855749 157.091117 
L 183.964039 63.219717 
L 184.18062 143.934375 
L 184.28891 115.682856 
L 184.505491 150.556336 
L 184.613781 145.572455 
L 184.722072 113.680902 
L 184.830362 169.385913 
L 184.938652 164.374537 
L 185.046943 60.642906 
L 185.263524 147.349023 
L 185.371814 123.874195 
L 185.480104 63.783537 
L 185.588395 118.539622 
L 185.696685 62.103829 
L 185.804975 204.831096 
L 185.913266 56.797986 
L 186.021556 175.215946 
L 186.129847 157.058892 
L 186.238137 65.477156 
L 186.346427 138.289696 
L 186.454718 55.684808 
L 186.563008 157.346873 
L 186.671298 139.680284 
L 186.887879 214.412703 
L 186.99617 168.061511 
L 187.10446 63.615639 
L 187.21275 162.511079 
L 187.321041 137.717957 
L 187.429331 61.673317 
L 187.537621 174.177787 
L 187.645912 163.956803 
L 187.754202 181.250275 
L 187.862493 149.992262 
L 187.970783 204.602647 
L 188.187364 70.840894 
L 188.295654 59.628915 
L 188.403944 61.232389 
L 188.512235 91.763045 
L 188.620525 62.703355 
L 188.728816 150.870962 
L 188.837106 54.992218 
L 188.945396 68.7449 
L 189.161977 157.429201 
L 189.270267 155.721916 
L 189.486848 56.83834 
L 189.595139 152.871 
L 189.703429 61.882598 
L 189.92001 173.620599 
L 190.0283 134.40702 
L 190.13659 140.064384 
L 190.244881 62.624313 
L 190.353171 62.970361 
L 190.461462 142.393434 
L 190.569752 61.524968 
L 190.678042 208.238766 
L 190.894623 55.503841 
L 191.002913 62.774016 
L 191.219494 156.691396 
L 191.327785 61.900967 
L 191.436075 151.813791 
L 191.544365 72.413275 
L 191.760946 150.280591 
L 191.869236 124.09925 
L 191.977527 150.526105 
L 192.085817 139.614837 
L 192.194108 182.511878 
L 192.302398 60.976443 
L 192.410688 68.844088 
L 192.518979 200.876651 
L 192.735559 62.857735 
L 192.84385 122.946505 
L 192.95214 60.345632 
L 193.060431 72.930416 
L 193.168721 55.012707 
L 193.277011 152.046136 
L 193.385302 98.143714 
L 193.493592 153.513145 
L 193.710173 141.879082 
L 193.818463 133.590252 
L 193.926754 196.640287 
L 194.035044 143.437118 
L 194.143334 146.781243 
L 194.251625 103.479462 
L 194.359915 127.72507 
L 194.468205 117.745549 
L 194.576496 192.397702 
L 194.793077 55.547502 
L 195.009657 145.28546 
L 195.117948 133.004883 
L 195.334528 178.31864 
L 195.6594 63.928218 
L 195.984271 156.811937 
L 196.092561 171.18352 
L 196.200851 54.676775 
L 196.309142 167.467141 
L 196.417432 64.655525 
L 196.634013 168.133141 
L 196.742303 118.054579 
L 196.958884 152.935778 
L 197.067174 64.388426 
L 197.175465 65.845966 
L 197.283755 61.384734 
L 197.392046 135.815056 
L 197.500336 130.309981 
L 197.608626 131.941949 
L 197.716917 162.257331 
L 197.825207 137.762339 
L 197.933497 159.600063 
L 198.041788 139.573225 
L 198.150078 62.206845 
L 198.366659 154.693438 
L 198.69153 134.179826 
L 198.908111 211.092699 
L 199.016401 57.440738 
L 199.124692 61.315455 
L 199.232982 110.606867 
L 199.341272 69.756931 
L 199.449563 171.494472 
L 199.557853 149.679495 
L 199.666143 202.450086 
L 199.774434 60.015749 
L 199.882724 139.539566 
L 199.991015 127.09906 
L 200.099305 62.541528 
L 200.207595 177.405126 
L 200.315886 155.909506 
L 200.424176 64.224362 
L 200.640757 167.884779 
L 200.749047 153.671587 
L 200.857338 199.467708 
L 201.073918 142.648971 
L 201.182209 55.354972 
L 201.398789 174.950686 
L 201.61537 60.349533 
L 201.831951 136.890823 
L 201.940241 171.165545 
L 202.156822 156.042588 
L 202.265112 181.47573 
L 202.373403 126.689716 
L 202.481693 147.237063 
L 202.589984 121.328524 
L 202.698274 203.080066 
L 202.806564 68.003719 
L 202.914855 168.38462 
L 203.023145 134.956373 
L 203.239726 225.945928 
L 203.348016 57.271901 
L 203.456307 152.178648 
L 203.564597 135.938944 
L 203.672887 159.900578 
L 203.781178 136.999466 
L 203.997759 150.560193 
L 204.106049 132.372785 
L 204.32263 164.986983 
L 204.647501 64.420491 
L 204.755791 164.622429 
L 204.972372 136.381011 
L 205.080662 133.814784 
L 205.188953 160.664184 
L 205.297243 157.257113 
L 205.622114 59.53374 
L 205.730405 216.103134 
L 205.838695 165.78804 
L 205.946985 174.748342 
L 206.055276 54.671581 
L 206.271856 188.49566 
L 206.488437 132.492181 
L 206.596728 175.887342 
L 206.813308 65.533302 
L 206.921599 67.893252 
L 207.029889 177.376438 
L 207.24647 54.444704 
L 207.463051 192.232511 
L 207.679631 130.327139 
L 207.787922 165.69203 
L 207.896212 127.958526 
L 208.004502 161.912142 
L 208.112793 147.531257 
L 208.221083 78.171884 
L 208.329374 156.794772 
L 208.437664 121.020516 
L 208.545954 195.486961 
L 208.762535 152.661166 
L 208.870825 63.979349 
L 209.087406 151.015749 
L 209.195697 54.727861 
L 209.303987 130.321863 
L 209.412277 82.504918 
L 209.628858 151.142265 
L 209.845439 159.687264 
L 209.953729 156.641567 
L 210.17031 122.012243 
L 210.2786 164.43294 
L 210.495181 71.486805 
L 210.603471 162.175866 
L 210.711762 134.536466 
L 210.820052 182.215188 
L 210.928343 65.82391 
L 211.036633 161.195563 
L 211.144923 64.318567 
L 211.253214 141.362467 
L 211.361504 128.92415 
L 211.469794 140.754391 
L 211.686375 134.04428 
L 211.902956 56.72244 
L 212.011246 196.897475 
L 212.119537 74.459679 
L 212.336117 95.243835 
L 212.552698 170.332661 
L 212.660989 58.3338 
L 212.877569 206.555695 
L 213.09415 65.258385 
L 213.20244 63.125423 
L 213.527312 191.120046 
L 213.743892 133.588152 
L 214.068763 203.475945 
L 214.177054 158.464315 
L 214.285344 198.557619 
L 214.393635 116.118955 
L 214.501925 127.797619 
L 214.610215 181.452697 
L 214.718506 148.634442 
L 214.826796 55.055053 
L 215.043377 133.795712 
L 215.151667 136.974504 
L 215.259958 75.977118 
L 215.476538 139.355084 
L 215.584829 60.804825 
L 215.801409 147.913775 
L 215.9097 202.653752 
L 216.01799 61.037499 
L 216.126281 66.652923 
L 216.451152 196.925832 
L 216.559442 63.275503 
L 216.667732 150.211336 
L 216.776023 55.080855 
L 216.992604 170.563433 
L 217.100894 94.588597 
L 217.209184 172.277771 
L 217.425765 123.444636 
L 217.534055 178.194003 
L 217.750636 93.313149 
L 217.858927 165.392408 
L 217.967217 135.283301 
L 218.075507 61.098876 
L 218.183798 69.206318 
L 218.292088 179.293122 
L 218.400378 134.358346 
L 218.508669 209.342456 
L 218.72525 65.365728 
L 218.83354 131.54868 
L 218.94183 102.113448 
L 219.050121 139.151589 
L 219.158411 135.348753 
L 219.266701 62.143754 
L 219.374992 178.938602 
L 219.483282 153.188432 
L 219.591573 162.290848 
L 219.699863 159.259726 
L 219.808153 119.847597 
L 219.916444 128.418723 
L 220.024734 146.431316 
L 220.133024 64.114615 
L 220.241315 153.725164 
L 220.349605 143.956686 
L 220.457896 194.799775 
L 220.566186 55.769392 
L 220.782767 155.198424 
L 220.891057 146.311827 
L 220.999347 176.653429 
L 221.107638 171.737442 
L 221.215928 55.29518 
L 221.324219 61.570352 
L 221.432509 125.033488 
L 221.540799 104.834536 
L 221.64909 148.672469 
L 221.75738 142.766287 
L 221.86567 120.470259 
L 221.973961 133.094292 
L 222.082251 211.563434 
L 222.190542 136.271802 
L 222.298832 158.835991 
L 222.407122 134.404802 
L 222.515413 65.863636 
L 222.623703 160.719846 
L 222.731993 62.609078 
L 222.840284 175.17462 
L 222.948574 129.704618 
L 223.056865 165.238223 
L 223.165155 64.104414 
L 223.273445 126.449767 
L 223.490026 55.27036 
L 223.598316 61.589065 
L 223.706607 163.592284 
L 223.923188 122.574176 
L 224.031478 132.740962 
L 224.139768 66.686079 
L 224.248059 139.73419 
L 224.356349 137.078873 
L 224.464639 177.206659 
L 224.68122 73.320962 
L 224.897801 181.749824 
L 225.114382 134.901983 
L 225.330962 57.207446 
L 225.439253 149.151502 
L 225.547543 128.271966 
L 225.655834 147.525583 
L 225.764124 62.936081 
L 225.872414 65.917112 
L 226.088995 136.131058 
L 226.197285 125.802427 
L 226.305576 55.161193 
L 226.522157 157.721651 
L 226.630447 158.159263 
L 226.738737 125.280772 
L 226.955318 199.796888 
L 227.171899 103.955602 
L 227.280189 140.830811 
L 227.38848 230.425835 
L 227.60506 60.360011 
L 227.821641 173.248194 
L 227.929931 153.16157 
L 228.038222 110.321787 
L 228.146512 181.310598 
L 228.363093 60.702114 
L 228.471383 71.23087 
L 228.579674 153.771472 
L 228.687964 68.037631 
L 228.796254 153.433816 
L 229.012835 64.634527 
L 229.121126 165.634019 
L 229.229416 162.41266 
L 229.337706 64.086645 
L 229.554287 153.584006 
L 229.662577 156.672989 
L 229.770868 54.942969 
L 229.987449 170.434578 
L 230.095739 129.519096 
L 230.204029 164.24199 
L 230.31232 115.184621 
L 230.5289 149.136877 
L 230.637191 161.51643 
L 230.745481 188.567984 
L 230.962062 57.308163 
L 231.070352 62.221252 
L 231.178643 201.228423 
L 231.286933 185.704543 
L 231.503514 61.329466 
L 231.720095 170.890471 
L 231.828385 63.182551 
L 231.936675 69.511571 
L 232.044966 129.47963 
L 232.153256 55.078888 
L 232.261546 202.879914 
L 232.369837 55.21502 
L 232.586418 147.614663 
L 232.694708 55.407953 
L 232.802998 165.319151 
L 232.911289 131.444623 
L 233.019579 61.06904 
L 233.127869 173.667994 
L 233.23616 62.56842 
L 233.452741 160.755268 
L 233.669321 63.59651 
L 233.777612 172.841616 
L 233.994192 123.544893 
L 234.319064 197.924961 
L 234.427354 141.406055 
L 234.535644 173.541851 
L 234.752225 65.48325 
L 234.860515 59.972316 
L 235.077096 173.998751 
L 235.185387 139.326537 
L 235.293677 149.771542 
L 235.401967 71.372741 
L 235.510258 166.542095 
L 235.726838 127.50742 
L 235.835129 136.269078 
L 235.943419 91.09912 
L 236.05171 182.43269 
L 236.26829 64.141926 
L 236.376581 61.129029 
L 236.593162 194.502347 
L 236.809742 129.859909 
L 237.026323 177.144717 
L 237.242904 68.387001 
L 237.351194 196.654813 
L 237.459485 71.170881 
L 237.676065 148.086519 
L 237.784356 165.175851 
L 237.892646 55.860148 
L 238.000936 56.211626 
L 238.109227 131.116489 
L 238.217517 68.69574 
L 238.325808 90.746168 
L 238.434098 170.62198 
L 238.542388 164.908762 
L 238.650679 168.395567 
L 238.758969 105.720624 
L 238.867259 156.552508 
L 238.97555 103.114481 
L 239.300421 155.873836 
L 239.408711 133.225152 
L 239.625292 170.984789 
L 239.733582 170.183128 
L 239.841873 185.758104 
L 239.950163 134.205634 
L 240.058454 136.292753 
L 240.275034 122.672781 
L 240.383325 59.794792 
L 240.491615 67.35839 
L 240.708196 169.673072 
L 240.816486 68.907345 
L 240.924777 158.707616 
L 241.141357 133.717382 
L 241.249648 66.826247 
L 241.357938 203.861406 
L 241.466228 55.298568 
L 241.7911 146.764855 
L 241.89939 152.137796 
L 242.00768 55.357586 
L 242.115971 158.244848 
L 242.332551 54.505056 
L 242.440842 152.406673 
L 242.549132 120.142958 
L 242.657423 170.482171 
L 242.765713 94.718871 
L 242.982294 198.926906 
L 243.090584 133.495419 
L 243.198874 185.437309 
L 243.415455 120.749344 
L 243.523746 107.907141 
L 243.632036 59.764123 
L 243.740326 177.231365 
L 243.848617 145.194955 
L 243.956907 164.775501 
L 244.065197 159.948154 
L 244.173488 67.175119 
L 244.390069 156.973729 
L 244.498359 111.084929 
L 244.606649 138.362991 
L 244.71494 60.539597 
L 244.93152 145.323451 
L 245.148101 158.844062 
L 245.256392 134.663236 
L 245.364682 146.926099 
L 245.581263 133.8661 
L 245.689553 155.493375 
L 245.797843 73.121898 
L 246.014424 171.313036 
L 246.122715 136.585876 
L 246.231005 143.888426 
L 246.339295 135.130641 
L 246.447586 106.156122 
L 246.555876 171.866132 
L 246.664166 151.064121 
L 246.772457 60.207698 
L 246.880747 63.262444 
L 246.989038 181.874747 
L 247.205618 127.326034 
L 247.422199 186.027879 
L 247.530489 138.684305 
L 247.63878 143.692624 
L 247.74707 68.583919 
L 247.855361 173.758308 
L 247.963651 135.867724 
L 248.071941 159.274207 
L 248.180232 54.868911 
L 248.288522 167.809889 
L 248.396812 156.252129 
L 248.505103 60.579411 
L 248.613393 154.095743 
L 248.721684 148.721814 
L 248.829974 133.995729 
L 248.938264 142.677856 
L 249.154845 125.999885 
L 249.263135 157.444302 
L 249.371426 146.637116 
L 249.479716 172.847903 
L 249.588007 114.636664 
L 249.696297 137.447099 
L 249.804587 60.794396 
L 249.912878 175.798087 
L 250.129458 132.282287 
L 250.237749 153.167256 
L 250.346039 108.671398 
L 250.45433 159.108989 
L 250.56262 60.604158 
L 250.779201 191.245861 
L 250.887491 213.277853 
L 251.104072 61.588661 
L 251.320653 166.742036 
L 251.428943 121.489098 
L 251.537233 163.6599 
L 251.645524 69.037594 
L 251.753814 184.849558 
L 251.862104 180.807724 
L 252.186976 106.570192 
L 252.295266 190.975351 
L 252.511847 143.006048 
L 252.728427 58.519766 
L 252.836718 142.182094 
L 252.945008 139.324523 
L 253.053299 57.947004 
L 253.161589 60.439931 
L 253.269879 130.706108 
L 253.37817 62.879977 
L 253.48646 63.924774 
L 253.703041 152.145097 
L 253.811331 136.146005 
L 254.027912 205.389857 
L 254.244493 83.42879 
L 254.461073 165.536188 
L 254.569364 62.37694 
L 254.677654 152.46381 
L 254.785945 128.571103 
L 254.894235 141.853205 
L 255.002525 94.013822 
L 255.110816 190.862122 
L 255.219106 179.517314 
L 255.435687 150.09655 
L 255.543977 144.540176 
L 255.652268 63.347983 
L 255.760558 139.054082 
L 255.868848 72.99458 
L 256.085429 166.81119 
L 256.193719 131.897618 
L 256.30201 153.711701 
L 256.4103 64.227213 
L 256.518591 165.427844 
L 256.735171 69.600982 
L 256.951752 139.480026 
L 257.060042 66.142589 
L 257.276623 133.138774 
L 257.384914 166.869703 
L 257.493204 142.557473 
L 257.601494 166.490659 
L 257.709785 250.312189 
L 257.818075 122.706888 
L 257.926365 196.056075 
L 258.034656 131.203567 
L 258.251237 181.105789 
L 258.359527 97.120924 
L 258.576108 145.382514 
L 258.684398 62.10681 
L 258.792688 129.992151 
L 258.900979 72.606452 
L 259.11756 152.071712 
L 259.22585 63.187081 
L 259.33414 166.541789 
L 259.442431 164.81213 
L 259.550721 216.66538 
L 259.875592 64.452669 
L 259.983883 122.116917 
L 260.200463 55.325074 
L 260.417044 158.179028 
L 260.525334 175.826046 
L 260.633625 122.63599 
L 260.741915 130.07073 
L 260.850206 125.783172 
L 260.958496 145.841667 
L 261.066786 223.784759 
L 261.283367 92.414068 
L 261.499948 143.410187 
L 261.608238 61.685675 
L 261.716529 172.262853 
L 261.824819 55.179317 
L 262.0414 178.322997 
L 262.14969 56.272721 
L 262.25798 151.399954 
L 262.691142 84.984302 
L 262.799432 119.07606 
L 262.907723 65.676252 
L 263.016013 169.187516 
L 263.124303 134.139708 
L 263.232594 62.159258 
L 263.340884 64.508856 
L 263.557465 169.749628 
L 263.665755 180.253521 
L 263.774046 138.897311 
L 263.882336 147.688037 
L 263.990626 146.276071 
L 264.098917 55.110108 
L 264.207207 134.066483 
L 264.315498 57.307967 
L 264.423788 143.897734 
L 264.532078 134.839788 
L 264.640369 170.824891 
L 264.748659 151.176647 
L 264.856949 178.543193 
L 264.96524 117.635248 
L 265.07353 142.354063 
L 265.181821 60.18107 
L 265.290111 60.466663 
L 265.398401 135.824843 
L 265.506692 61.102314 
L 265.614982 144.486298 
L 265.723272 54.656884 
L 265.939853 163.481414 
L 266.048144 165.662657 
L 266.264724 216.708526 
L 266.481305 56.212275 
L 266.697886 159.819153 
L 266.914467 120.294708 
L 267.022757 60.412875 
L 267.239338 159.542841 
L 267.347628 54.778706 
L 267.564209 63.151278 
L 267.672499 171.982681 
L 267.78079 167.999261 
L 267.99737 140.168715 
L 268.105661 54.967693 
L 268.213951 56.051163 
L 268.430532 135.795655 
L 268.538822 62.940982 
L 268.755403 134.346677 
L 268.863693 155.694588 
L 268.971984 131.596276 
L 269.080274 148.51434 
L 269.188564 122.912363 
L 269.296855 177.299432 
L 269.405145 124.416897 
L 269.513436 126.13899 
L 269.621726 115.809196 
L 269.730016 162.51737 
L 269.838307 63.399292 
L 270.054888 172.107281 
L 270.163178 139.211047 
L 270.271468 144.798874 
L 270.379759 141.769022 
L 270.488049 69.06898 
L 270.596339 141.064535 
L 270.70463 60.032086 
L 270.81292 149.286845 
L 270.921211 118.382835 
L 271.029501 54.580536 
L 271.137791 54.783543 
L 271.246082 104.563598 
L 271.354372 66.154983 
L 271.462662 132.71487 
L 271.570953 123.560966 
L 271.679243 56.64981 
L 271.895824 141.832572 
L 272.004114 146.981565 
L 272.112405 192.577361 
L 272.220695 136.171681 
L 272.437276 182.444279 
L 272.545566 66.005803 
L 272.653857 173.556555 
L 272.870437 63.203317 
L 273.087018 178.770471 
L 273.195308 119.867428 
L 273.303599 163.840978 
L 273.411889 163.605487 
L 273.62847 76.541032 
L 273.73676 60.142676 
L 273.953341 147.645164 
L 274.061631 145.682046 
L 274.278212 133.582729 
L 274.386503 54.491543 
L 274.494793 163.039341 
L 274.603083 66.288801 
L 274.819664 187.299242 
L 274.927954 172.66089 
L 275.036245 63.931365 
L 275.144535 162.438678 
L 275.252826 143.2583 
L 275.469406 175.489156 
L 275.577697 162.900166 
L 275.685987 61.782145 
L 275.794277 135.485924 
L 275.902568 54.245546 
L 276.119149 147.745272 
L 276.227439 56.177807 
L 276.335729 81.784645 
L 276.44402 139.26489 
L 276.55231 134.656382 
L 276.768891 54.970324 
L 276.985472 141.169204 
L 277.093762 55.890246 
L 277.202052 61.655658 
L 277.310343 141.298854 
L 277.418633 82.764454 
L 277.526923 175.106697 
L 277.635214 99.310473 
L 277.743504 127.390118 
L 277.851795 192.657894 
L 277.960085 131.246222 
L 278.068375 227.097809 
L 278.284956 148.82321 
L 278.393246 148.732779 
L 278.501537 124.56139 
L 278.609827 56.843583 
L 278.718118 142.375754 
L 278.826408 116.857721 
L 279.151279 218.528494 
L 279.259569 201.744946 
L 279.36786 114.130839 
L 279.47615 161.2918 
L 279.584441 57.987867 
L 279.692731 63.657404 
L 279.909312 168.474385 
L 280.017602 120.159822 
L 280.234183 159.77295 
L 280.342473 131.919315 
L 280.450764 208.57542 
L 280.667344 159.522253 
L 280.775635 165.378582 
L 280.883925 127.557312 
L 280.992215 132.061072 
L 281.100506 67.099736 
L 281.425377 145.862331 
L 281.533667 63.004979 
L 281.641958 136.487744 
L 281.750248 133.171648 
L 281.858538 144.887564 
L 281.966829 169.489647 
L 282.18341 67.914395 
L 282.39999 157.301793 
L 282.508281 174.078851 
L 282.616571 132.861087 
L 282.724861 149.489693 
L 282.833152 145.008548 
L 282.941442 69.045439 
L 283.049733 179.343509 
L 283.158023 165.836533 
L 283.266313 168.093406 
L 283.374604 193.815731 
L 283.482894 67.640298 
L 283.591184 73.625628 
L 283.699475 171.026032 
L 283.807765 131.184501 
L 284.024346 168.364713 
L 284.132636 195.996762 
L 284.240927 139.072983 
L 284.349217 150.197704 
L 284.457507 137.990903 
L 284.674088 181.04144 
L 284.782379 94.639575 
L 284.998959 189.091395 
L 285.10725 146.203897 
L 285.21554 180.143767 
L 285.32383 136.328314 
L 285.648702 162.660663 
L 285.756992 134.521406 
L 285.865282 136.765666 
L 285.973573 133.565094 
L 286.081863 137.617113 
L 286.190153 118.118284 
L 286.298444 163.528778 
L 286.406734 57.549206 
L 286.515025 150.694074 
L 286.731605 55.476469 
L 286.839896 63.506561 
L 286.948186 219.607419 
L 287.056476 54.572318 
L 287.273057 156.145733 
L 287.381348 131.043832 
L 287.489638 137.689816 
L 287.597928 55.034212 
L 287.706219 144.940401 
L 287.814509 54.979357 
L 287.922799 98.00136 
L 288.13938 55.71606 
L 288.355961 177.091459 
L 288.464251 123.969746 
L 288.572542 144.934755 
L 288.680832 128.439514 
L 288.789122 54.449403 
L 288.897413 60.338291 
L 289.005703 162.668246 
L 289.113994 55.318776 
L 289.222284 212.107185 
L 289.330574 166.511549 
L 289.438865 169.123878 
L 289.547155 77.754 
L 289.655445 129.436494 
L 289.872026 67.72487 
L 289.980317 144.588214 
L 290.088607 56.471834 
L 290.305188 153.986809 
L 290.413478 54.498906 
L 290.630059 164.40303 
L 290.738349 142.016572 
L 290.84664 145.542913 
L 290.95493 97.03865 
L 291.06322 172.410401 
L 291.171511 58.770022 
L 291.279801 155.5327 
L 291.388091 83.727051 
L 291.496382 182.726576 
L 291.712963 147.512852 
L 291.821253 54.655363 
L 292.037834 172.86356 
L 292.146124 177.23389 
L 292.254414 169.63128 
L 292.362705 64.07135 
L 292.470995 129.741095 
L 292.579286 127.524015 
L 292.687576 169.749365 
L 292.904157 152.06166 
L 293.012447 61.068147 
L 293.120737 139.416409 
L 293.229028 134.736175 
L 293.337318 141.010006 
L 293.445609 128.241381 
L 293.553899 70.776166 
L 293.77048 194.028533 
L 293.98706 63.223586 
L 294.095351 151.806612 
L 294.203641 62.188756 
L 294.311932 155.328817 
L 294.420222 88.672124 
L 294.636803 164.938224 
L 294.853383 135.757906 
L 294.961674 66.082648 
L 295.178255 198.120484 
L 295.286545 63.22461 
L 295.503126 154.501615 
L 295.611416 61.696876 
L 295.719706 158.675467 
L 295.827997 113.007761 
L 295.936287 133.011973 
L 296.044578 92.178785 
L 296.152868 158.929666 
L 296.261158 156.740069 
L 296.369449 166.026059 
L 296.477739 154.934802 
L 296.69432 64.313632 
L 296.80261 88.178738 
L 296.910901 174.896022 
L 297.019191 54.215266 
L 297.127481 60.14361 
L 297.344062 155.007846 
L 297.452352 130.601067 
L 297.560643 59.844286 
L 297.668933 164.462539 
L 297.777224 154.740195 
L 297.993804 61.872222 
L 298.102095 177.977716 
L 298.318675 137.792373 
L 298.426966 179.6999 
L 298.643547 148.910821 
L 298.751837 158.21439 
L 298.860127 112.679736 
L 298.968418 147.512904 
L 299.184998 143.843333 
L 299.293289 203.14258 
L 299.50987 128.79049 
L 299.61816 133.315741 
L 299.834741 178.811172 
L 300.051321 74.670747 
L 300.159612 94.349522 
L 300.376193 169.410412 
L 300.592773 139.242535 
L 300.701064 120.642172 
L 300.917644 132.006007 
L 301.134225 114.90147 
L 301.242516 166.188092 
L 301.459096 135.224305 
L 301.567387 132.479903 
L 301.675677 154.841203 
L 301.783967 143.556047 
L 301.892258 150.649975 
L 302.000548 184.566288 
L 302.108839 174.885285 
L 302.217129 150.122267 
L 302.325419 191.387809 
L 302.43371 134.374141 
L 302.542 172.028025 
L 302.65029 154.450545 
L 302.758581 172.511626 
L 302.866871 68.202968 
L 303.083452 149.826918 
L 303.191742 147.88668 
L 303.300033 166.155776 
L 303.408323 165.168302 
L 303.516613 141.439868 
L 303.624904 69.405888 
L 303.841485 148.165437 
L 303.949775 90.92551 
L 304.058065 169.908946 
L 304.274646 92.372197 
L 304.382937 205.704211 
L 304.599517 134.384282 
L 304.816098 183.581268 
L 304.924388 149.009262 
L 305.032679 68.425088 
L 305.24926 196.52034 
L 305.35755 164.489924 
L 305.46584 178.577245 
L 305.574131 63.644953 
L 305.682421 190.483146 
L 305.790711 62.536837 
L 306.007292 162.236972 
L 306.115583 146.287084 
L 306.223873 62.086892 
L 306.332163 134.223695 
L 306.440454 57.321519 
L 306.548744 137.615122 
L 306.657034 125.931876 
L 306.765325 71.25806 
L 306.873615 151.774022 
L 306.981906 140.082261 
L 307.090196 152.947779 
L 307.198486 145.493345 
L 307.306777 65.773834 
L 307.415067 146.089436 
L 307.523357 132.673217 
L 307.631648 63.836727 
L 307.848229 146.373309 
L 307.956519 172.27594 
L 308.064809 65.078433 
L 308.1731 186.901691 
L 308.28139 144.664798 
L 308.38968 157.58435 
L 308.497971 200.19371 
L 308.822842 65.05071 
L 308.931132 169.179979 
L 309.256003 139.585772 
L 309.364294 62.090806 
L 309.472584 97.457613 
L 309.580875 172.6743 
L 309.689165 119.221094 
L 309.905746 152.510001 
L 310.014036 168.095962 
L 310.122326 141.235338 
L 310.230617 60.380352 
L 310.338907 64.026241 
L 310.555488 162.315989 
L 310.663778 55.08098 
L 310.880359 167.051595 
L 310.988649 136.25961 
L 311.20523 157.93081 
L 311.313521 74.466354 
L 311.530101 146.373053 
L 311.638392 137.981042 
L 311.746682 139.391996 
L 311.963263 122.434773 
L 312.071553 153.680592 
L 312.288134 135.152208 
L 312.396424 143.719722 
L 312.504715 101.126618 
L 312.829586 148.535882 
L 312.937876 143.280554 
L 313.046167 128.850364 
L 313.154457 141.502807 
L 313.262747 189.853021 
L 313.371038 154.379007 
L 313.587618 183.907965 
L 313.695909 57.474855 
L 313.804199 141.23997 
L 314.02078 127.835136 
L 314.12907 64.095938 
L 314.237361 68.788452 
L 314.453941 155.425727 
L 314.562232 60.989709 
L 314.670522 165.421985 
L 314.887103 68.142871 
L 314.995393 149.105639 
L 315.103684 67.782846 
L 315.211974 138.748839 
L 315.320264 60.903591 
L 315.428555 183.329455 
L 315.645136 145.374102 
L 315.753426 167.837097 
L 315.861716 59.445445 
L 315.970007 177.42992 
L 316.078297 154.655371 
L 316.294878 55.528308 
L 316.511459 145.364265 
L 316.728039 61.883271 
L 316.83633 140.500453 
L 316.94462 65.741488 
L 317.161201 170.892217 
L 317.269491 134.331798 
L 317.377782 178.439812 
L 317.486072 153.942165 
L 317.594362 161.79751 
L 317.702653 161.129829 
L 317.810943 102.767452 
L 318.027524 170.288691 
L 318.244105 60.168735 
L 318.460685 166.93626 
L 318.568976 64.475885 
L 318.785556 166.297437 
L 318.893847 135.840685 
L 319.002137 67.119363 
L 319.110428 127.997115 
L 319.218718 83.991005 
L 319.435299 143.493595 
L 319.543589 149.660238 
L 319.76017 128.139651 
L 319.86846 149.3463 
L 319.976751 55.317734 
L 320.193331 175.838929 
L 320.409912 63.956128 
L 320.626493 144.412043 
L 320.734783 143.085501 
L 320.843074 153.306671 
L 320.951364 135.860774 
L 321.059654 160.446064 
L 321.167945 159.225898 
L 321.276235 139.622802 
L 321.384525 192.530653 
L 321.601106 134.572724 
L 321.709397 123.704312 
L 321.817687 163.413747 
L 321.925977 134.514721 
L 322.034268 178.473724 
L 322.250848 152.448372 
L 322.359139 61.088098 
L 322.57572 200.20842 
L 322.68401 60.177203 
L 322.7923 151.007298 
L 322.900591 149.311486 
L 323.008881 136.255097 
L 323.117171 169.204898 
L 323.333752 55.129285 
L 323.442043 221.682076 
L 323.983494 111.631009 
L 324.091785 231.726378 
L 324.200075 103.319737 
L 324.308366 135.043042 
L 324.416656 63.458763 
L 324.633237 148.6778 
L 324.741527 60.217281 
L 324.849817 61.454449 
L 324.958108 60.608762 
L 325.174689 144.84088 
L 325.391269 66.370007 
L 325.49956 152.922652 
L 325.71614 59.96453 
L 325.824431 104.557449 
L 325.932721 74.075277 
L 326.041012 175.008551 
L 326.149302 66.893325 
L 326.257592 174.39905 
L 326.365883 134.685783 
L 326.582463 174.658907 
L 326.799044 136.941768 
L 327.015625 151.197556 
L 327.123915 143.415212 
L 327.232206 191.781074 
L 327.340496 146.528746 
L 327.448786 189.037535 
L 327.557077 166.943527 
L 327.665367 174.756764 
L 327.773658 138.241045 
L 327.881948 155.530532 
L 328.098529 60.949666 
L 328.206819 60.987193 
L 328.315109 125.295505 
L 328.4234 62.447344 
L 328.53169 140.312948 
L 328.639981 129.324162 
L 328.856561 182.195453 
L 328.964852 149.510619 
L 329.073142 182.554661 
L 329.181432 144.044662 
L 329.289723 175.97057 
L 329.506304 55.03531 
L 329.614594 184.960311 
L 329.722884 142.838937 
L 329.831175 144.793779 
L 329.939465 205.451534 
L 330.156046 64.285354 
L 330.372627 169.495732 
L 330.480917 135.49818 
L 330.697498 181.573981 
L 330.805788 125.740144 
L 330.914078 136.022343 
L 331.022369 176.252976 
L 331.130659 154.155631 
L 331.23895 199.87895 
L 331.34724 133.149589 
L 331.45553 157.876496 
L 331.563821 150.222696 
L 331.672111 161.028224 
L 331.780401 148.122188 
L 331.888692 176.894118 
L 331.996982 61.432511 
L 332.105273 182.317053 
L 332.213563 160.25348 
L 332.321853 111.397701 
L 332.538434 179.682105 
L 332.755015 67.737848 
L 332.863305 180.927337 
L 332.971596 62.612407 
L 333.079886 180.828976 
L 333.188176 132.087071 
L 333.404757 152.041593 
L 333.513047 123.405971 
L 333.621338 159.282648 
L 333.729628 147.545279 
L 333.837919 67.401968 
L 333.946209 160.326934 
L 334.054499 157.397805 
L 334.16279 145.942706 
L 334.27108 236.16902 
L 334.487661 143.460576 
L 334.595951 168.459716 
L 334.812532 132.810977 
L 335.029113 154.690819 
L 335.137403 54.890807 
L 335.353984 189.769218 
L 335.462274 198.293396 
L 335.570565 136.624957 
L 335.678855 231.512146 
L 335.895436 56.22014 
L 336.003726 141.634179 
L 336.112016 132.596934 
L 336.220307 135.231719 
L 336.328597 130.72067 
L 336.436888 140.654167 
L 336.545178 162.524722 
L 336.653468 143.292833 
L 336.761759 153.815836 
L 336.870049 62.23567 
L 336.978339 62.519683 
L 337.08663 60.001586 
L 337.19492 184.911114 
L 337.303211 68.953007 
L 337.411501 76.165015 
L 337.519791 162.639334 
L 337.628082 160.852039 
L 337.736372 90.824871 
L 337.844663 171.576351 
L 337.952953 127.433039 
L 338.061243 166.154935 
L 338.169534 55.204349 
L 338.386114 187.709728 
L 338.494405 144.018339 
L 338.602695 161.284873 
L 338.710986 135.945267 
L 338.819276 165.887565 
L 339.035857 93.805171 
L 339.144147 148.398642 
L 339.360728 65.561556 
L 339.685599 173.292761 
L 339.793889 153.601807 
L 339.90218 60.316017 
L 340.01047 233.494588 
L 340.11876 132.19906 
L 340.335341 173.851246 
L 340.443632 139.535068 
L 340.551922 157.470532 
L 340.660212 154.150985 
L 340.768503 69.593477 
L 340.876793 78.800029 
L 340.985083 55.357851 
L 341.093374 154.164583 
L 341.201664 152.457224 
L 341.309955 167.539694 
L 341.418245 149.997126 
L 341.526535 162.25095 
L 341.634826 64.222239 
L 341.743116 138.392012 
L 341.851406 67.416612 
L 341.959697 68.353161 
L 342.176278 158.247879 
L 342.501149 124.009321 
L 342.609439 204.344013 
L 342.717729 143.645578 
L 342.82602 162.196111 
L 342.93431 151.170868 
L 343.042601 173.542925 
L 343.259181 54.711148 
L 343.367472 132.192802 
L 343.475762 106.644503 
L 343.584052 146.24109 
L 343.692343 124.942216 
L 343.800633 61.526929 
L 344.017214 165.600802 
L 344.125504 137.873641 
L 344.233795 65.794459 
L 344.342085 180.237676 
L 344.450375 55.218677 
L 344.558666 147.718077 
L 344.666956 64.45886 
L 344.775247 71.57338 
L 344.883537 179.698543 
L 344.991827 60.675346 
L 345.100118 149.56884 
L 345.208408 135.797118 
L 345.316698 170.038876 
L 345.424989 165.039409 
L 345.533279 73.197263 
L 345.64157 166.357702 
L 345.74986 107.130766 
L 345.85815 150.925089 
L 345.966441 146.223263 
L 346.074731 54.959877 
L 346.183021 143.177582 
L 346.291312 121.017906 
L 346.399602 132.312381 
L 346.507893 70.693565 
L 346.616183 168.227287 
L 346.724473 162.341542 
L 346.832764 142.206885 
L 346.941054 143.607122 
L 347.049344 64.25095 
L 347.157635 137.263224 
L 347.265925 119.817619 
L 347.482506 145.133094 
L 347.590796 143.536937 
L 347.807377 153.10769 
L 347.915667 129.666835 
L 348.132248 153.271529 
L 348.240539 166.785128 
L 348.348829 195.569979 
L 348.6737 148.679224 
L 348.78199 128.957121 
L 348.890281 158.283903 
L 349.215152 125.768022 
L 349.323442 149.030561 
L 349.540023 125.614078 
L 349.648313 205.778495 
L 349.756604 60.871387 
L 349.973185 158.077618 
L 350.081475 135.892471 
L 350.189765 140.40748 
L 350.298056 153.942964 
L 350.406346 54.656141 
L 350.514636 174.864797 
L 350.622927 126.116216 
L 350.731217 130.270101 
L 350.839508 161.157203 
L 350.947798 121.909228 
L 351.056088 128.960157 
L 351.164379 182.910357 
L 351.272669 171.505025 
L 351.380959 147.998644 
L 351.59754 169.317447 
L 351.705831 163.626655 
L 351.814121 121.215726 
L 352.030702 169.372239 
L 352.138992 71.642476 
L 352.247282 72.664172 
L 352.463863 148.181098 
L 352.572154 159.087793 
L 352.680444 155.893678 
L 352.788734 129.744277 
L 352.897025 174.884429 
L 353.005315 60.35443 
L 353.113605 137.899286 
L 353.221896 128.125906 
L 353.330186 66.738731 
L 353.438477 66.996864 
L 353.655057 178.26962 
L 353.763348 169.075111 
L 353.871638 185.610424 
L 353.979928 55.070865 
L 354.088219 163.404094 
L 354.196509 122.952656 
L 354.3048 152.645921 
L 354.41309 63.1568 
L 354.52138 123.451114 
L 354.629671 60.46654 
L 354.846251 216.93915 
L 354.954542 103.996765 
L 355.062832 164.564748 
L 355.171123 159.810291 
L 355.279413 138.895268 
L 355.387703 187.491869 
L 355.604284 58.017486 
L 355.712574 172.139908 
L 355.820865 133.158722 
L 356.037446 156.747137 
L 356.145736 163.640284 
L 356.254026 154.396528 
L 356.362317 198.485908 
L 356.470607 55.15379 
L 356.687188 138.777617 
L 356.795478 125.276403 
L 356.903769 178.47294 
L 357.012059 169.865556 
L 357.120349 189.612596 
L 357.33693 60.888431 
L 357.553511 172.701839 
L 357.661801 133.113753 
L 357.770092 160.420989 
L 357.878382 151.315189 
L 357.986672 182.821851 
L 358.094963 127.120303 
L 358.311543 170.17813 
L 358.419834 157.682493 
L 358.528124 131.363829 
L 358.636415 148.451039 
L 358.744705 59.93099 
L 358.852995 164.499062 
L 358.961286 139.426431 
L 359.069576 54.656489 
L 359.177866 70.435056 
L 359.286157 171.927328 
L 359.502738 61.041972 
L 359.611028 134.8539 
L 359.719318 59.480536 
L 359.827609 131.078822 
L 359.935899 66.387956 
L 360.15248 172.644611 
L 360.26077 119.191566 
L 360.369061 171.571878 
L 360.477351 170.458913 
L 360.585641 161.737429 
L 360.802222 56.067238 
L 361.018803 188.494697 
L 361.127093 143.785192 
L 361.235384 187.525267 
L 361.343674 96.034601 
L 361.451964 158.909228 
L 361.560255 130.521 
L 361.668545 63.823207 
L 361.885126 166.791458 
L 361.993416 176.460966 
L 362.101707 59.161307 
L 362.209997 142.841123 
L 362.318287 139.918189 
L 362.426578 167.439897 
L 362.534868 144.753523 
L 362.751449 61.068077 
L 362.96803 164.586486 
L 363.07632 133.697713 
L 363.18461 201.520256 
L 363.292901 158.45889 
L 363.401191 169.496787 
L 363.509481 56.053669 
L 363.726062 134.725774 
L 363.834353 76.797047 
L 364.050933 170.818163 
L 364.159224 54.980958 
L 364.267514 62.131819 
L 364.375804 165.559434 
L 364.484095 143.22208 
L 364.592385 154.560352 
L 364.700676 219.853001 
L 364.917256 70.147477 
L 365.133837 226.898582 
L 365.242127 131.689845 
L 365.458708 182.870674 
L 365.566999 139.926058 
L 365.675289 166.871471 
L 365.783579 138.786384 
L 365.89187 62.727359 
L 366.10845 154.804221 
L 366.216741 64.436326 
L 366.325031 73.159126 
L 366.433322 124.635938 
L 366.541612 56.377836 
L 366.758193 133.163708 
L 366.974773 60.724886 
L 367.083064 140.419324 
L 367.299645 61.259435 
L 367.407935 54.141829 
L 367.624516 162.38137 
L 367.732806 135.230965 
L 367.841096 180.856484 
L 367.949387 66.198653 
L 368.057677 161.330281 
L 368.165968 87.535367 
L 368.274258 171.608996 
L 368.490839 129.388176 
L 368.599129 169.504315 
L 368.707419 56.729697 
L 368.81571 175.946747 
L 368.924 67.093699 
L 369.032291 201.595665 
L 369.140581 53.784048 
L 369.357162 189.41187 
L 369.465452 124.354879 
L 369.682033 130.75924 
L 369.790323 154.476561 
L 369.898614 154.175499 
L 370.006904 163.465945 
L 370.115194 127.468483 
L 370.223485 172.088123 
L 370.440065 144.797534 
L 370.548356 89.512251 
L 370.656646 136.892945 
L 370.764937 61.035338 
L 370.981517 161.522846 
L 371.089808 156.039361 
L 371.306389 123.415349 
L 371.414679 134.307803 
L 371.522969 69.43161 
L 371.73955 238.700176 
L 372.064421 60.646903 
L 372.172712 55.630481 
L 372.281002 106.395466 
L 372.389292 60.364892 
L 372.497583 153.065789 
L 372.605873 109.873083 
L 372.822454 147.402283 
L 372.930744 61.124646 
L 373.039035 88.282462 
L 373.147325 158.561082 
L 373.255615 135.207785 
L 373.363906 167.524556 
L 373.472196 143.054948 
L 373.580486 162.476368 
L 373.797067 134.271269 
L 373.905358 147.984708 
L 374.013648 184.581554 
L 374.121938 167.958309 
L 374.230229 176.231459 
L 374.338519 138.09918 
L 374.446809 171.656486 
L 374.66339 162.068221 
L 374.771681 140.161742 
L 374.879971 149.005742 
L 374.988261 168.362426 
L 375.096552 67.495146 
L 375.313132 161.030878 
L 375.421423 162.516585 
L 375.638004 140.386393 
L 375.746294 176.798341 
L 375.854584 54.798213 
L 376.071165 171.079595 
L 376.179455 93.082238 
L 376.287746 215.599595 
L 376.504327 55.952361 
L 376.612617 176.885077 
L 376.720907 141.113481 
L 376.829198 55.41035 
L 377.045778 199.647809 
L 377.154069 183.056292 
L 377.262359 101.656592 
L 377.47894 178.805956 
L 377.58723 153.526394 
L 377.695521 54.313821 
L 377.803811 165.557509 
L 378.020392 129.42966 
L 378.128682 140.644251 
L 378.236973 194.292773 
L 378.453553 140.164237 
L 378.561844 196.447763 
L 378.778424 161.992797 
L 378.886715 183.222765 
L 379.103296 62.068312 
L 379.211586 176.435893 
L 379.319876 173.161571 
L 379.536457 128.282338 
L 379.644747 126.368454 
L 379.969619 167.620231 
L 380.077909 152.847092 
L 380.186199 177.272545 
L 380.29449 154.274477 
L 380.40278 166.386827 
L 380.51107 141.052472 
L 380.619361 165.86415 
L 380.835942 143.984 
L 380.944232 153.072432 
L 381.269103 60.762372 
L 381.485684 163.953679 
L 381.593974 91.651907 
L 381.702265 227.59911 
L 381.918845 112.274372 
L 382.135426 163.513228 
L 382.352007 137.457609 
L 382.460297 148.99427 
L 382.568588 135.845621 
L 382.676878 151.17744 
L 382.785168 60.520185 
L 382.893459 137.092297 
L 383.001749 56.085803 
L 383.21833 133.478258 
L 383.32662 57.964686 
L 383.434911 154.57272 
L 383.543201 132.346013 
L 383.759782 148.38967 
L 383.868072 161.427939 
L 384.084653 57.540287 
L 384.301234 166.253702 
L 384.409524 133.054604 
L 384.517814 178.115508 
L 384.734395 132.081073 
L 384.842685 154.02113 
L 384.950976 140.329923 
L 385.059266 53.568 
L 385.167557 64.130688 
L 385.275847 169.897065 
L 385.492428 132.325116 
L 385.600718 182.717206 
L 385.709008 117.474273 
L 385.925589 175.108321 
L 386.03388 54.012871 
L 386.14217 210.831044 
L 386.25046 128.043162 
L 386.358751 198.867702 
L 386.467041 144.031241 
L 386.575331 169.676935 
L 386.683622 164.00469 
L 386.900203 179.438913 
L 387.116783 159.792937 
L 387.225074 207.290467 
L 387.441654 137.470807 
L 387.549945 187.331147 
L 387.766526 85.983847 
L 387.983106 187.738287 
L 388.091397 145.383547 
L 388.199687 175.529712 
L 388.307977 90.301342 
L 388.632849 174.770189 
L 388.741139 127.142608 
L 388.849429 136.626658 
L 389.06601 184.890136 
L 389.1743 116.539062 
L 389.282591 125.423609 
L 389.390881 156.127724 
L 389.499172 139.740149 
L 389.607462 86.626261 
L 389.824043 201.035786 
L 389.932333 153.019751 
L 390.040623 169.936194 
L 390.148914 164.675145 
L 390.257204 64.569106 
L 390.473785 188.056079 
L 390.582075 187.005187 
L 390.690366 53.795396 
L 390.906946 191.426882 
L 391.015237 91.54771 
L 391.123527 152.97106 
L 391.231818 84.157443 
L 391.340108 150.449634 
L 391.556689 130.613191 
L 391.773269 165.215592 
L 391.98985 157.285419 
L 392.098141 173.96198 
L 392.314721 139.98829 
L 392.531302 186.489927 
L 392.639592 185.275301 
L 392.964464 125.316614 
L 393.072754 129.191862 
L 393.181044 170.490096 
L 393.289335 151.185954 
L 393.397625 161.737577 
L 393.505915 146.090971 
L 393.614206 68.149244 
L 393.722496 157.747783 
L 393.830787 63.591637 
L 393.939077 195.830181 
L 394.155658 138.62665 
L 394.372238 187.383445 
L 394.480529 54.82702 
L 394.69711 136.250156 
L 394.91369 171.601874 
L 395.021981 153.506543 
L 395.130271 179.40042 
L 395.455142 150.162782 
L 395.563433 166.711246 
L 395.780013 54.803587 
L 395.888304 192.333749 
L 395.996594 121.996619 
L 396.321465 165.940266 
L 396.429756 133.481879 
L 396.538046 159.454204 
L 396.862917 128.676516 
L 396.971207 148.484004 
L 397.079498 190.276167 
L 397.187788 63.6976 
L 397.296079 167.01891 
L 397.512659 159.992269 
L 397.62095 121.615143 
L 397.72924 179.120492 
L 397.83753 163.212655 
L 397.945821 130.512322 
L 398.054111 140.394424 
L 398.162402 167.524363 
L 398.270692 66.158488 
L 398.378982 169.04553 
L 398.487273 111.172627 
L 398.487273 111.172627 
" style="fill:none;stroke:#1f77b4;stroke-linecap:square;stroke-width:1.5;"/>
   </g>
   <g id="patch_3">
    <path d="M 57.6 307.584 
L 57.6 41.472 
" style="fill:none;stroke:#000000;stroke-linecap:square;stroke-linejoin:miter;stroke-width:0.8;"/>
   </g>
   <g id="patch_4">
    <path d="M 414.72 307.584 
L 414.72 41.472 
" style="fill:none;stroke:#000000;stroke-linecap:square;stroke-linejoin:miter;stroke-width:0.8;"/>
   </g>
   <g id="patch_5">
    <path d="M 57.6 307.584 
L 414.72 307.584 
" style="fill:none;stroke:#000000;stroke-linecap:square;stroke-linejoin:miter;stroke-width:0.8;"/>
   </g>
   <g id="patch_6">
    <path d="M 57.6 41.472 
L 414.72 41.472 
" style="fill:none;stroke:#000000;stroke-linecap:square;stroke-linejoin:miter;stroke-width:0.8;"/>
   </g>
   <g id="text_16">
    <!-- Quality Convergence -->
    <defs>
     <path id="DejaVuSans-32"/>
     <path d="M 64.40625 67.28125 
L 64.40625 56.890625 
Q 59.421875 61.53125 53.78125 63.8125 
Q 48.140625 66.109375 41.796875 66.109375 
Q 29.296875 66.109375 22.65625 58.46875 
Q 16.015625 50.828125 16.015625 36.375 
Q 16.015625 21.96875 22.65625 14.328125 
Q 29.296875 6.6875 41.796875 6.6875 
Q 48.140625 6.6875 53.78125 8.984375 
Q 59.421875 11.28125 64.40625 15.921875 
L 64.40625 5.609375 
Q 59.234375 2.09375 53.4375 0.328125 
Q 47.65625 -1.421875 41.21875 -1.421875 
Q 24.65625 -1.421875 15.125 8.703125 
Q 5.609375 18.84375 5.609375 36.375 
Q 5.609375 53.953125 15.125 64.078125 
Q 24.65625 74.21875 41.21875 74.21875 
Q 47.75 74.21875 53.53125 72.484375 
Q 59.328125 70.75 64.40625 67.28125 
z
" id="DejaVuSans-67"/>
     <path d="M 2.984375 54.6875 
L 12.5 54.6875 
L 29.59375 8.796875 
L 46.6875 54.6875 
L 56.203125 54.6875 
L 35.6875 0 
L 23.484375 0 
z
" id="DejaVuSans-118"/>
     <path d="M 45.40625 27.984375 
Q 45.40625 37.75 41.375 43.109375 
Q 37.359375 48.484375 30.078125 48.484375 
Q 22.859375 48.484375 18.828125 43.109375 
Q 14.796875 37.75 14.796875 27.984375 
Q 14.796875 18.265625 18.828125 12.890625 
Q 22.859375 7.515625 30.078125 7.515625 
Q 37.359375 7.515625 41.375 12.890625 
Q 45.40625 18.265625 45.40625 27.984375 
z
M 54.390625 6.78125 
Q 54.390625 -7.171875 48.1875 -13.984375 
Q 42 -20.796875 29.203125 -20.796875 
Q 24.46875 -20.796875 20.265625 -20.09375 
Q 16.0625 -19.390625 12.109375 -17.921875 
L 12.109375 -9.1875 
Q 16.0625 -11.328125 19.921875 -12.34375 
Q 23.78125 -13.375 27.78125 -13.375 
Q 36.625 -13.375 41.015625 -8.765625 
Q 45.40625 -4.15625 45.40625 5.171875 
L 45.40625 9.625 
Q 42.625 4.78125 38.28125 2.390625 
Q 33.9375 0 27.875 0 
Q 17.828125 0 11.671875 7.65625 
Q 5.515625 15.328125 5.515625 27.984375 
Q 5.515625 40.671875 11.671875 48.328125 
Q 17.828125 56 27.875 56 
Q 33.9375 56 38.28125 53.609375 
Q 42.625 51.21875 45.40625 46.390625 
L 45.40625 54.6875 
L 54.390625 54.6875 
z
" id="DejaVuSans-103"/>
     <path d="M 48.78125 52.59375 
L 48.78125 44.1875 
Q 44.96875 46.296875 41.140625 47.34375 
Q 37.3125 48.390625 33.40625 48.390625 
Q 24.65625 48.390625 19.8125 42.84375 
Q 14.984375 37.3125 14.984375 27.296875 
Q 14.984375 17.28125 19.8125 11.734375 
Q 24.65625 6.203125 33.40625 6.203125 
Q 37.3125 6.203125 41.140625 7.25 
Q 44.96875 8.296875 48.78125 10.40625 
L 48.78125 2.09375 
Q 45.015625 0.34375 40.984375 -0.53125 
Q 36.96875 -1.421875 32.421875 -1.421875 
Q 20.0625 -1.421875 12.78125 6.34375 
Q 5.515625 14.109375 5.515625 27.296875 
Q 5.515625 40.671875 12.859375 48.328125 
Q 20.21875 56 33.015625 56 
Q 37.15625 56 41.109375 55.140625 
Q 45.0625 54.296875 48.78125 52.59375 
z
" id="DejaVuSans-99"/>
    </defs>
    <g transform="translate(173.250937 35.472)scale(0.12 -0.12)">
     <use xlink:href="#DejaVuSans-81"/>
     <use x="78.710938" xlink:href="#DejaVuSans-117"/>
     <use x="142.089844" xlink:href="#DejaVuSans-97"/>
     <use x="203.369141" xlink:href="#DejaVuSans-108"/>
     <use x="231.152344" xlink:href="#DejaVuSans-105"/>
     <use x="258.935547" xlink:href="#DejaVuSans-116"/>
     <use x="298.144531" xlink:href="#DejaVuSans-121"/>
     <use x="357.324219" xlink:href="#DejaVuSans-32"/>
     <use x="389.111328" xlink:href="#DejaVuSans-67"/>
     <use x="458.935547" xlink:href="#DejaVuSans-111"/>
     <use x="520.117188" xlink:href="#DejaVuSans-110"/>
     <use x="583.496094" xlink:href="#DejaVuSans-118"/>
     <use x="642.675781" xlink:href="#DejaVuSans-101"/>
     <use x="704.199219" xlink:href="#DejaVuSans-114"/>
     <use x="743.5625" xlink:href="#DejaVuSans-103"/>
     <use x="807.039062" xlink:href="#DejaVuSans-101"/>
     <use x="868.5625" xlink:href="#DejaVuSans-110"/>
     <use x="931.941406" xlink:href="#DejaVuSans-99"/>
     <use x="986.921875" xlink:href="#DejaVuSans-101"/>
    </g>
   </g>
  </g>
 </g>
 <defs>
  <clipPath id="p876d3aa0b4">
   <rect height="266.112" width="357.12" x="57.6" y="41.472"/>
  </clipPath>
 </defs>
</svg>
